<?xml version="1.0" encoding="UTF-8" standalone="no"?><svg xmlns="http://www.w3.org/2000/svg" xmlns:xlink="http://www.w3.org/1999/xlink" contentScriptType="application/ecmascript" contentStyleType="text/css" height="2557px" preserveAspectRatio="none" style="width:902px;height:2557px;" version="1.1" viewBox="0 0 902 2557" width="902px" zoomAndPan="magnify"><defs><filter height="300%" id="f1kkve1z5fm8yg" width="300%" x="-1" y="-1"><feGaussianBlur result="blurOut" stdDeviation="2.0"/><feColorMatrix in="blurOut" result="blurOut2" type="matrix" values="0 0 0 0 0 0 0 0 0 0 0 0 0 0 0 0 0 0 .4 0"/><feOffset dx="4.0" dy="4.0" in="blurOut2" result="blurOut3"/><feBlend in="SourceGraphic" in2="blurOut3" mode="normal"/></filter></defs><g><text fill="#000000" font-family="sans-serif" font-size="18" lengthAdjust="spacingAndGlyphs" textLength="219" x="345.5" y="19.2419">Atkins project tests, build</text><!--MD5=[487418505b5cf5b37f0dde3836a556a5]
entity fmt___Format_the_code_step_0--><rect fill="#F5F5F5" filter="url(#f1kkve1z5fm8yg)" height="39.0679" style="stroke: #A80036; stroke-width: 1.5;" width="117" x="720" y="230.5158"/><rect fill="#F5F5F5" height="5" style="stroke: #A80036; stroke-width: 1.5;" width="10" x="715" y="235.5158"/><rect fill="#F5F5F5" height="5" style="stroke: #A80036; stroke-width: 1.5;" width="10" x="715" y="259.5838"/><text fill="#000000" font-family="sans-serif" font-size="14" lengthAdjust="spacingAndGlyphs" textLength="97" x="730" y="255.4818">goimports -w .</text><!--MD5=[90a3f7475de9971408abdb5058c33638]
entity default___Run_everything_needed--><rect fill="#90EE90" filter="url(#f1kkve1z5fm8yg)" height="39.0679" style="stroke: #A80036; stroke-width: 1.5;" width="239" x="430" y="230.5158"/><rect fill="#90EE90" height="5" style="stroke: #A80036; stroke-width: 1.5;" width="10" x="425" y="235.5158"/><rect fill="#90EE90" height="5" style="stroke: #A80036; stroke-width: 1.5;" width="10" x="425" y="259.5838"/><text fill="#000000" font-family="sans-serif" font-size="14" lengthAdjust="spacingAndGlyphs" textLength="219" x="440" y="255.4818">default - Run everything needed</text><!--MD5=[56ac309112daf3ba4bddb41e2d0ea2cc]
entity default___Run_everything_needed_task_test_simple--><rect fill="#F0E68C" filter="url(#f1kkve1z5fm8yg)" height="39.0679" style="stroke: #A80036; stroke-width: 1.5;" width="129" x="452" y="329.5158"/><rect fill="#F0E68C" height="5" style="stroke: #A80036; stroke-width: 1.5;" width="10" x="447" y="334.5158"/><rect fill="#F0E68C" height="5" style="stroke: #A80036; stroke-width: 1.5;" width="10" x="447" y="358.5838"/><text fill="#000000" font-family="sans-serif" font-size="14" lengthAdjust="spacingAndGlyphs" textLength="109" x="462" y="354.4818">task: test:simple</text><!--MD5=[e7a206f44abdadb6f3eee10b8a5a8959]
entity test_detail_step_1--><rect fill="#F5F5F5" filter="url(#f1kkve1z5fm8yg)" height="39.0679" style="stroke: #A80036; stroke-width: 1.5;" width="271" x="6" y="1913.5158"/><rect fill="#F5F5F5" height="5" style="stroke: #A80036; stroke-width: 1.5;" width="10" x="1" y="1918.5158"/><rect fill="#F5F5F5" height="5" style="stroke: #A80036; stroke-width: 1.5;" width="10" x="1" y="1942.5838"/><text fill="#000000" font-family="sans-serif" font-size="14" lengthAdjust="spacingAndGlyphs" textLength="251" x="16" y="1938.4818">./bin/${{ item }} -test.cov... (100 execs)</text><!--MD5=[f5e62a6843217c4275710b96abf5e8fc]
entity docker_down___Bring_down_docker_env_step_0--><rect fill="#F5F5F5" filter="url(#f1kkve1z5fm8yg)" height="39.0679" style="stroke: #A80036; stroke-width: 1.5;" width="170" x="262.5" y="2507.5158"/><rect fill="#F5F5F5" height="5" style="stroke: #A80036; stroke-width: 1.5;" width="10" x="257.5" y="2512.5158"/><rect fill="#F5F5F5" height="5" style="stroke: #A80036; stroke-width: 1.5;" width="10" x="257.5" y="2536.5838"/><text fill="#000000" font-family="sans-serif" font-size="14" lengthAdjust="spacingAndGlyphs" textLength="150" x="272.5" y="2532.4818">docker compose down</text><!--MD5=[3ededdb2af514d3c3107e60c142dc8a2]
entity fmt___Format_the_code--><rect fill="#90EE90" filter="url(#f1kkve1z5fm8yg)" height="39.0679" style="stroke: #A80036; stroke-width: 1.5;" width="165" x="603" y="131.5158"/><rect fill="#90EE90" height="5" style="stroke: #A80036; stroke-width: 1.5;" width="10" x="598" y="136.5158"/><rect fill="#90EE90" height="5" style="stroke: #A80036; stroke-width: 1.5;" width="10" x="598" y="160.5838"/><text fill="#000000" font-family="sans-serif" font-size="14" lengthAdjust="spacingAndGlyphs" textLength="145" x="613" y="156.4818">fmt - Format the code</text><!--MD5=[3b6d01097fd17d31d3da60220f7d66d9]
entity test_run___Run_built_tests--><rect fill="#90EE90" filter="url(#f1kkve1z5fm8yg)" height="39.0679" style="stroke: #A80036; stroke-width: 1.5;" width="184" x="274.5" y="1121.5158"/><rect fill="#90EE90" height="5" style="stroke: #A80036; stroke-width: 1.5;" width="10" x="269.5" y="1126.5158"/><rect fill="#90EE90" height="5" style="stroke: #A80036; stroke-width: 1.5;" width="10" x="269.5" y="1150.5838"/><text fill="#000000" font-family="sans-serif" font-size="14" lengthAdjust="spacingAndGlyphs" textLength="164" x="284.5" y="1146.4818">test:run - Run built tests</text><!--MD5=[4245df49c58385652cf2dea6e7648977]
entity test_run___Run_built_tests_step_1--><rect fill="#F5F5F5" filter="url(#f1kkve1z5fm8yg)" height="39.0679" style="stroke: #A80036; stroke-width: 1.5;" width="124" x="290.5" y="1517.5158"/><rect fill="#F5F5F5" height="5" style="stroke: #A80036; stroke-width: 1.5;" width="10" x="285.5" y="1522.5158"/><rect fill="#F5F5F5" height="5" style="stroke: #A80036; stroke-width: 1.5;" width="10" x="285.5" y="1546.5838"/><text fill="#000000" font-family="sans-serif" font-size="14" lengthAdjust="spacingAndGlyphs" textLength="104" x="300.5" y="1542.4818">rm -rf coverage</text><!--MD5=[051a64ef173ca84a7ea30631edee106a]
entity test_run___Run_built_tests_task_docker_down--><rect fill="#F0E68C" filter="url(#f1kkve1z5fm8yg)" height="39.0679" style="stroke: #A80036; stroke-width: 1.5;" width="141" x="277" y="2309.5158"/><rect fill="#F0E68C" height="5" style="stroke: #A80036; stroke-width: 1.5;" width="10" x="272" y="2314.5158"/><rect fill="#F0E68C" height="5" style="stroke: #A80036; stroke-width: 1.5;" width="10" x="272" y="2338.5838"/><text fill="#000000" font-family="sans-serif" font-size="14" lengthAdjust="spacingAndGlyphs" textLength="121" x="287" y="2334.4818">task: docker:down</text><!--MD5=[0bd34a654f22ffae4a3989c29503a8ee]
entity test_build___Build_tests_step_1--><rect fill="#F5F5F5" filter="url(#f1kkve1z5fm8yg)" height="39.0679" style="stroke: #A80036; stroke-width: 1.5;" width="210" x="103.5" y="923.5158"/><rect fill="#F5F5F5" height="5" style="stroke: #A80036; stroke-width: 1.5;" width="10" x="98.5" y="928.5158"/><rect fill="#F5F5F5" height="5" style="stroke: #A80036; stroke-width: 1.5;" width="10" x="98.5" y="952.5838"/><text fill="#000000" font-family="sans-serif" font-size="14" lengthAdjust="spacingAndGlyphs" textLength="190" x="113.5" y="948.4818">go test -cover -coverpkg=./...</text><!--MD5=[021330a0a53d91219d3b0b190fd54646]
entity test_build___Build_tests--><rect fill="#90EE90" filter="url(#f1kkve1z5fm8yg)" height="39.0679" style="stroke: #A80036; stroke-width: 1.5;" width="168" x="216.5" y="725.5158"/><rect fill="#90EE90" height="5" style="stroke: #A80036; stroke-width: 1.5;" width="10" x="211.5" y="730.5158"/><rect fill="#90EE90" height="5" style="stroke: #A80036; stroke-width: 1.5;" width="10" x="211.5" y="754.5838"/><text fill="#000000" font-family="sans-serif" font-size="14" lengthAdjust="spacingAndGlyphs" textLength="148" x="226.5" y="750.4818">test:build - Build tests</text><!--MD5=[8fd2f11eaf5187ae3b0dd81093145946]
entity test_coverage--><rect fill="#90EE90" filter="url(#f1kkve1z5fm8yg)" height="39.0679" style="stroke: #A80036; stroke-width: 1.5;" width="110" x="329.5" y="2111.5158"/><rect fill="#90EE90" height="5" style="stroke: #A80036; stroke-width: 1.5;" width="10" x="324.5" y="2116.5158"/><rect fill="#90EE90" height="5" style="stroke: #A80036; stroke-width: 1.5;" width="10" x="324.5" y="2140.5838"/><text fill="#000000" font-family="sans-serif" font-size="14" lengthAdjust="spacingAndGlyphs" textLength="90" x="339.5" y="2136.4818">test:coverage</text><!--MD5=[91d92b020fef7f2048dc41ab8cf19424]
entity docker_down___Bring_down_docker_env--><rect fill="#90EE90" filter="url(#f1kkve1z5fm8yg)" height="39.0679" style="stroke: #A80036; stroke-width: 1.5;" width="274" x="210.5" y="2408.5158"/><rect fill="#90EE90" height="5" style="stroke: #A80036; stroke-width: 1.5;" width="10" x="205.5" y="2413.5158"/><rect fill="#90EE90" height="5" style="stroke: #A80036; stroke-width: 1.5;" width="10" x="205.5" y="2437.5838"/><text fill="#000000" font-family="sans-serif" font-size="14" lengthAdjust="spacingAndGlyphs" textLength="254" x="220.5" y="2433.4818">docker:down - Bring down docker env</text><!--MD5=[7be8f3a91261359d1de91db42b0f0c10]
entity test_run___Run_built_tests_task_docker_up--><rect fill="#F0E68C" filter="url(#f1kkve1z5fm8yg)" height="39.0679" style="stroke: #A80036; stroke-width: 1.5;" width="122" x="305.5" y="1220.5158"/><rect fill="#F0E68C" height="5" style="stroke: #A80036; stroke-width: 1.5;" width="10" x="300.5" y="1225.5158"/><rect fill="#F0E68C" height="5" style="stroke: #A80036; stroke-width: 1.5;" width="10" x="300.5" y="1249.5838"/><text fill="#000000" font-family="sans-serif" font-size="14" lengthAdjust="spacingAndGlyphs" textLength="102" x="315.5" y="1245.4818">task: docker:up</text><!--MD5=[4ebd854ee458ac53a767dfe723240dc9]
entity test_detail--><rect fill="#90EE90" filter="url(#f1kkve1z5fm8yg)" height="39.0679" style="stroke: #A80036; stroke-width: 1.5;" width="87" x="261" y="1715.5158"/><rect fill="#90EE90" height="5" style="stroke: #A80036; stroke-width: 1.5;" width="10" x="256" y="1720.5158"/><rect fill="#90EE90" height="5" style="stroke: #A80036; stroke-width: 1.5;" width="10" x="256" y="1744.5838"/><text fill="#000000" font-family="sans-serif" font-size="14" lengthAdjust="spacingAndGlyphs" textLength="67" x="271" y="1740.4818">test:detail</text><!--MD5=[86fdb449fbb6188101604197eb66ce22]
entity Atkins_project_tests__build--><rect fill="#ADD8E6" filter="url(#f1kkve1z5fm8yg)" height="39.0679" style="stroke: #A80036; stroke-width: 1.5;" width="191" x="522" y="32.5158"/><rect fill="#ADD8E6" height="5" style="stroke: #A80036; stroke-width: 1.5;" width="10" x="517" y="37.5158"/><rect fill="#ADD8E6" height="5" style="stroke: #A80036; stroke-width: 1.5;" width="10" x="517" y="61.5838"/><text fill="#000000" font-family="sans-serif" font-size="14" lengthAdjust="spacingAndGlyphs" textLength="171" x="532" y="57.4818">Atkins project tests, build</text><!--MD5=[9af7f6174e3838eb28903e2981581716]
entity fmt___Format_the_code_step_2--><rect fill="#F5F5F5" filter="url(#f1kkve1z5fm8yg)" height="39.0679" style="stroke: #A80036; stroke-width: 1.5;" width="106" x="742.5" y="428.5158"/><rect fill="#F5F5F5" height="5" style="stroke: #A80036; stroke-width: 1.5;" width="10" x="737.5" y="433.5158"/><rect fill="#F5F5F5" height="5" style="stroke: #A80036; stroke-width: 1.5;" width="10" x="737.5" y="457.5838"/><text fill="#000000" font-family="sans-serif" font-size="14" lengthAdjust="spacingAndGlyphs" textLength="86" x="752.5" y="453.4818">gofumpt -w .</text><!--MD5=[a0199f448818eecf2d9281850ae74da1]
entity default___Run_everything_needed_task_test_build--><rect fill="#F0E68C" filter="url(#f1kkve1z5fm8yg)" height="39.0679" style="stroke: #A80036; stroke-width: 1.5;" width="119" x="309" y="626.5158"/><rect fill="#F0E68C" height="5" style="stroke: #A80036; stroke-width: 1.5;" width="10" x="304" y="631.5158"/><rect fill="#F0E68C" height="5" style="stroke: #A80036; stroke-width: 1.5;" width="10" x="304" y="655.5838"/><text fill="#000000" font-family="sans-serif" font-size="14" lengthAdjust="spacingAndGlyphs" textLength="99" x="319" y="651.4818">task: test:build</text><!--MD5=[073990055fc8fe9d56d82101babb7839]
entity test_coverage_step_0--><rect fill="#F5F5F5" filter="url(#f1kkve1z5fm8yg)" height="39.0679" style="stroke: #A80036; stroke-width: 1.5;" width="298" x="400.5" y="2210.5158"/><rect fill="#F5F5F5" height="5" style="stroke: #A80036; stroke-width: 1.5;" width="10" x="395.5" y="2215.5158"/><rect fill="#F5F5F5" height="5" style="stroke: #A80036; stroke-width: 1.5;" width="10" x="395.5" y="2239.5838"/><text fill="#000000" font-family="sans-serif" font-size="14" lengthAdjust="spacingAndGlyphs" textLength="278" x="410.5" y="2235.4818">covertrace --name ${{ funcN... (100 execs)</text><!--MD5=[d6a04fb1bdf23e63eddd2239c9ddba9c]
entity test_simple___Simple_go_test_with_gotestsum_passth_step_0--><rect fill="#F5F5F5" filter="url(#f1kkve1z5fm8yg)" height="39.0679" style="stroke: #A80036; stroke-width: 1.5;" width="189" x="422" y="527.5158"/><rect fill="#F5F5F5" height="5" style="stroke: #A80036; stroke-width: 1.5;" width="10" x="417" y="532.5158"/><rect fill="#F5F5F5" height="5" style="stroke: #A80036; stroke-width: 1.5;" width="10" x="417" y="556.5838"/><text fill="#000000" font-family="sans-serif" font-size="14" lengthAdjust="spacingAndGlyphs" textLength="169" x="432" y="552.4818">gotestsum ./... -- -count 1</text><!--MD5=[797a45346090a07bd3d6fb66e5a4e096]
entity test_build___Build_tests_step_0--><rect fill="#F5F5F5" filter="url(#f1kkve1z5fm8yg)" height="39.0679" style="stroke: #A80036; stroke-width: 1.5;" width="121" x="170" y="824.5158"/><rect fill="#F5F5F5" height="5" style="stroke: #A80036; stroke-width: 1.5;" width="10" x="165" y="829.5158"/><rect fill="#F5F5F5" height="5" style="stroke: #A80036; stroke-width: 1.5;" width="10" x="165" y="853.5838"/><text fill="#000000" font-family="sans-serif" font-size="14" lengthAdjust="spacingAndGlyphs" textLength="101" x="180" y="849.4818">rm bin/*.test -f</text><!--MD5=[a2829f0ee694c99bd63f8795b09f1954]
entity default___Run_everything_needed_task_test_run--><rect fill="#F0E68C" filter="url(#f1kkve1z5fm8yg)" height="39.0679" style="stroke: #A80036; stroke-width: 1.5;" width="108" x="312.5" y="1022.5158"/><rect fill="#F0E68C" height="5" style="stroke: #A80036; stroke-width: 1.5;" width="10" x="307.5" y="1027.5158"/><rect fill="#F0E68C" height="5" style="stroke: #A80036; stroke-width: 1.5;" width="10" x="307.5" y="1051.5838"/><text fill="#000000" font-family="sans-serif" font-size="14" lengthAdjust="spacingAndGlyphs" textLength="88" x="322.5" y="1047.4818">task: test:run</text><!--MD5=[9b2b697b95b037aa106df5094945ebf1]
entity docker_up___Bring_up_docker_env--><rect fill="#90EE90" filter="url(#f1kkve1z5fm8yg)" height="39.0679" style="stroke: #A80036; stroke-width: 1.5;" width="236" x="334.5" y="1319.5158"/><rect fill="#90EE90" height="5" style="stroke: #A80036; stroke-width: 1.5;" width="10" x="329.5" y="1324.5158"/><rect fill="#90EE90" height="5" style="stroke: #A80036; stroke-width: 1.5;" width="10" x="329.5" y="1348.5838"/><text fill="#000000" font-family="sans-serif" font-size="14" lengthAdjust="spacingAndGlyphs" textLength="216" x="344.5" y="1344.4818">docker:up - Bring up docker env</text><!--MD5=[9927b46a325c12dfe6b3bde344e6266b]
entity docker_up___Bring_up_docker_env_step_0--><rect fill="#F5F5F5" filter="url(#f1kkve1z5fm8yg)" height="39.0679" style="stroke: #A80036; stroke-width: 1.5;" width="223" x="406" y="1418.5158"/><rect fill="#F5F5F5" height="5" style="stroke: #A80036; stroke-width: 1.5;" width="10" x="401" y="1423.5158"/><rect fill="#F5F5F5" height="5" style="stroke: #A80036; stroke-width: 1.5;" width="10" x="401" y="1447.5838"/><text fill="#000000" font-family="sans-serif" font-size="14" lengthAdjust="spacingAndGlyphs" textLength="203" x="416" y="1443.4818">docker compose up -d --wait...</text><!--MD5=[1667952e388d01853625acaa6dc2f92f]
entity test_run___Run_built_tests_task_test_detail--><rect fill="#F0E68C" filter="url(#f1kkve1z5fm8yg)" height="39.0679" style="stroke: #A80036; stroke-width: 1.5;" width="122" x="291.5" y="1616.5158"/><rect fill="#F0E68C" height="5" style="stroke: #A80036; stroke-width: 1.5;" width="10" x="286.5" y="1621.5158"/><rect fill="#F0E68C" height="5" style="stroke: #A80036; stroke-width: 1.5;" width="10" x="286.5" y="1645.5838"/><text fill="#000000" font-family="sans-serif" font-size="14" lengthAdjust="spacingAndGlyphs" textLength="102" x="301.5" y="1641.4818">task: test:detail</text><!--MD5=[368e13531aabc18d5f0ed0866ef18f86]
entity test_detail_step_0--><rect fill="#F5F5F5" filter="url(#f1kkve1z5fm8yg)" height="39.0679" style="stroke: #A80036; stroke-width: 1.5;" width="213" x="50" y="1814.5158"/><rect fill="#F5F5F5" height="5" style="stroke: #A80036; stroke-width: 1.5;" width="10" x="45" y="1819.5158"/><rect fill="#F5F5F5" height="5" style="stroke: #A80036; stroke-width: 1.5;" width="10" x="45" y="1843.5838"/><text fill="#000000" font-family="sans-serif" font-size="14" lengthAdjust="spacingAndGlyphs" textLength="193" x="60" y="1839.4818">mkdir -p coverage/${{ item }}</text><!--MD5=[9f45675f9b891bcf7295bf9754adb242]
entity test_run___Run_built_tests_task_test_coverage--><rect fill="#F0E68C" filter="url(#f1kkve1z5fm8yg)" height="39.0679" style="stroke: #A80036; stroke-width: 1.5;" width="145" x="258" y="2012.5158"/><rect fill="#F0E68C" height="5" style="stroke: #A80036; stroke-width: 1.5;" width="10" x="253" y="2017.5158"/><rect fill="#F0E68C" height="5" style="stroke: #A80036; stroke-width: 1.5;" width="10" x="253" y="2041.5838"/><text fill="#000000" font-family="sans-serif" font-size="14" lengthAdjust="spacingAndGlyphs" textLength="125" x="268" y="2037.4818">task: test:coverage</text><!--MD5=[1131a81315d5be0689d4aa972887c556]
entity fmt___Format_the_code_step_1--><rect fill="#F5F5F5" filter="url(#f1kkve1z5fm8yg)" height="39.0679" style="stroke: #A80036; stroke-width: 1.5;" width="210" x="681.5" y="329.5158"/><rect fill="#F5F5F5" height="5" style="stroke: #A80036; stroke-width: 1.5;" width="10" x="676.5" y="334.5158"/><rect fill="#F5F5F5" height="5" style="stroke: #A80036; stroke-width: 1.5;" width="10" x="676.5" y="358.5838"/><text fill="#000000" font-family="sans-serif" font-size="14" lengthAdjust="spacingAndGlyphs" textLength="190" x="691.5" y="354.4818">goimports-reviser -set-alia...</text><!--MD5=[1361de0fc8e1876b46192da0e20a75b6]
entity fmt___Format_the_code_step_3--><rect fill="#F5F5F5" filter="url(#f1kkve1z5fm8yg)" height="39.0679" style="stroke: #A80036; stroke-width: 1.5;" width="100" x="745.5" y="527.5158"/><rect fill="#F5F5F5" height="5" style="stroke: #A80036; stroke-width: 1.5;" width="10" x="740.5" y="532.5158"/><rect fill="#F5F5F5" height="5" style="stroke: #A80036; stroke-width: 1.5;" width="10" x="740.5" y="556.5838"/><text fill="#000000" font-family="sans-serif" font-size="14" lengthAdjust="spacingAndGlyphs" textLength="80" x="755.5" y="552.4818">go mod tidy</text><!--MD5=[b165162be2e65d2c5585f98e529c4a07]
entity test_simple___Simple_go_test_with_gotestsum_passth--><rect fill="#90EE90" filter="url(#f1kkve1z5fm8yg)" height="39.0679" style="stroke: #A80036; stroke-width: 1.5;" width="383" x="325" y="428.5158"/><rect fill="#90EE90" height="5" style="stroke: #A80036; stroke-width: 1.5;" width="10" x="320" y="433.5158"/><rect fill="#90EE90" height="5" style="stroke: #A80036; stroke-width: 1.5;" width="10" x="320" y="457.5838"/><text fill="#000000" font-family="sans-serif" font-size="14" lengthAdjust="spacingAndGlyphs" textLength="363" x="335" y="453.4818">test:simple - Simple go test with gotestsum (passthru)</text><!--MD5=[e4f74bf80fa510533b62662641747078]
link Atkins_project_tests__build to fmt___Format_the_code--><path d="M630.61,71.7158 C641.71,87.5558 657.66,110.3058 669.51,127.2058 " fill="none" id="Atkins_project_tests__build-&gt;fmt___Format_the_code" style="stroke: #A80036; stroke-width: 1.0;"/><polygon fill="#A80036" points="672.43,131.3658,670.5276,121.7025,669.555,127.2751,663.9824,126.3024,672.43,131.3658" style="stroke: #A80036; stroke-width: 1.0;"/><!--MD5=[25463d9e28b38e760acb7067a69c6c25]
link fmt___Format_the_code to fmt___Format_the_code_step_0--><path d="M703.43,170.7158 C718.74,186.6858 740.8,209.6958 757.04,226.6358 " fill="none" id="fmt___Format_the_code-&gt;fmt___Format_the_code_step_0" style="stroke: #A80036; stroke-width: 1.0;"/><polygon fill="#A80036" points="760.62,230.3658,757.2705,221.1041,757.1565,226.7598,751.5007,226.6457,760.62,230.3658" style="stroke: #A80036; stroke-width: 1.0;"/><!--MD5=[81467571eb377a236d0957cf2e74e276]
link fmt___Format_the_code_step_0 to fmt___Format_the_code_step_1--><path d="M780.04,269.7158 C781.33,285.2858 783.16,307.5358 784.55,324.3458 " fill="none" id="fmt___Format_the_code_step_0-&gt;fmt___Format_the_code_step_1" style="stroke: #A80036; stroke-width: 1.0;"/><polygon fill="#A80036" points="784.96,329.3658,788.201,320.0655,784.546,324.383,780.2285,320.728,784.96,329.3658" style="stroke: #A80036; stroke-width: 1.0;"/><!--MD5=[25b4f87e6373f4d6fae3e11c45f78902]
link fmt___Format_the_code_step_1 to fmt___Format_the_code_step_2--><path d="M788.24,368.7158 C789.68,384.2858 791.74,406.5358 793.3,423.3458 " fill="none" id="fmt___Format_the_code_step_1-&gt;fmt___Format_the_code_step_2" style="stroke: #A80036; stroke-width: 1.0;"/><polygon fill="#A80036" points="793.77,428.3658,796.9025,419.0284,793.298,423.3882,788.9382,419.7837,793.77,428.3658" style="stroke: #A80036; stroke-width: 1.0;"/><!--MD5=[c6a3f6da656ef52df3b5f4602e6adf92]
link fmt___Format_the_code_step_2 to fmt___Format_the_code_step_3--><path d="M795.5,467.7158 C795.5,483.2858 795.5,505.5358 795.5,522.3458 " fill="none" id="fmt___Format_the_code_step_2-&gt;fmt___Format_the_code_step_3" style="stroke: #A80036; stroke-width: 1.0;"/><polygon fill="#A80036" points="795.5,527.3658,799.5,518.3658,795.5,522.3658,791.5,518.3658,795.5,527.3658" style="stroke: #A80036; stroke-width: 1.0;"/><!--MD5=[f0eec12e0f0d2d1d4caf6aa75c06ec40]
link Atkins_project_tests__build to default___Run_everything_needed--><path d="M609.39,71.5458 C602.62,87.3458 592.91,110.7158 585.5,131.5158 C574.07,163.6058 562.9,201.3658 556.1,225.2458 " fill="none" id="Atkins_project_tests__build-&gt;default___Run_everything_needed" style="stroke: #A80036; stroke-width: 1.0;"/><polygon fill="#A80036" points="554.72,230.1258,561.0119,222.5488,556.0766,225.3134,553.312,220.3782,554.72,230.1258" style="stroke: #A80036; stroke-width: 1.0;"/><!--MD5=[6dca00603077d043c1d38ba01dd1ded0]
link fmt___Format_the_code to default___Run_everything_needed--><path d="M659.28,170.7158 C636.61,186.8858 603.82,210.2758 579.98,227.2758 " fill="none" id="fmt___Format_the_code-&gt;default___Run_everything_needed" style="stroke: #A80036; stroke-width: 1.0;"/><polygon fill="#A80036" points="575.64,230.3658,585.2912,228.4025,579.7125,227.4651,580.6499,221.8864,575.64,230.3658" style="stroke: #A80036; stroke-width: 1.0;"/><!--MD5=[7f3084bfb59c312780fab6cf7a452c2d]
link default___Run_everything_needed to default___Run_everything_needed_task_test_simple--><path d="M543.14,269.7158 C537.84,285.2858 530.27,307.5358 524.55,324.3458 " fill="none" id="default___Run_everything_needed-&gt;default___Run_everything_needed_task_test_simple" style="stroke: #A80036; stroke-width: 1.0;"/><polygon fill="#A80036" points="522.84,329.3658,529.5136,322.1227,524.4426,324.6296,521.9357,319.5586,522.84,329.3658" style="stroke: #A80036; stroke-width: 1.0;"/><!--MD5=[88196b67e15580afe0742bdd6304d8ea]
link default___Run_everything_needed_task_test_simple to test_simple___Simple_go_test_with_gotestsum_passth--><path d="M516.5,368.7158 C516.5,384.2858 516.5,406.5358 516.5,423.3458 " fill="none" id="default___Run_everything_needed_task_test_simple-&gt;test_simple___Simple_go_test_with_gotestsum_passth" style="stroke: #A80036; stroke-width: 1.0; stroke-dasharray: 7.0,7.0;"/><polygon fill="#A80036" points="516.5,428.3658,520.5,419.3658,516.5,423.3658,512.5,419.3658,516.5,428.3658" style="stroke: #A80036; stroke-width: 1.0;"/><!--MD5=[c80029d32f8407b6bffc2c74b0ffc1bc]
link test_simple___Simple_go_test_with_gotestsum_passth to test_simple___Simple_go_test_with_gotestsum_passth_step_0--><path d="M516.5,467.7158 C516.5,483.2858 516.5,505.5358 516.5,522.3458 " fill="none" id="test_simple___Simple_go_test_with_gotestsum_passth-&gt;test_simple___Simple_go_test_with_gotestsum_passth_step_0" style="stroke: #A80036; stroke-width: 1.0;"/><polygon fill="#A80036" points="516.5,527.3658,520.5,518.3658,516.5,522.3658,512.5,518.3658,516.5,527.3658" style="stroke: #A80036; stroke-width: 1.0;"/><!--MD5=[8feaeb7c5475f1cc09e69719b4ad30ab]
link default___Run_everything_needed_task_test_simple to default___Run_everything_needed_task_test_build--><path d="M451.74,355.2758 C403.17,363.0058 339.72,381.9958 307.5,428.5158 C264.94,489.9658 320.14,580.5758 350.69,622.3658 " fill="none" id="default___Run_everything_needed_task_test_simple-&gt;default___Run_everything_needed_task_test_build" style="stroke: #A80036; stroke-width: 1.0;"/><polygon fill="#A80036" points="353.75,626.4958,351.5884,616.8871,350.766,622.4839,345.1693,621.6615,353.75,626.4958" style="stroke: #A80036; stroke-width: 1.0;"/><!--MD5=[9d26971c153c3461c87553a58330f64c]
link test_simple___Simple_go_test_with_gotestsum_passth to default___Run_everything_needed_task_test_build--><path d="M477.99,467.5158 C453.68,481.0158 423.41,501.4858 404.5,527.5158 C384.01,555.7158 375.01,595.7758 371.18,621.0758 " fill="none" id="test_simple___Simple_go_test_with_gotestsum_passth-&gt;default___Run_everything_needed_task_test_build" style="stroke: #A80036; stroke-width: 1.0;"/><polygon fill="#A80036" points="370.44,626.2458,375.6625,617.8956,371.1411,621.2952,367.7415,616.7739,370.44,626.2458" style="stroke: #A80036; stroke-width: 1.0;"/><!--MD5=[2052c208cda8ea9ad845064f8c03a0ef]
link test_simple___Simple_go_test_with_gotestsum_passth_step_0 to default___Run_everything_needed_task_test_build--><path d="M487.96,566.7158 C463.19,582.9558 427.32,606.4658 401.35,623.4858 " fill="none" id="test_simple___Simple_go_test_with_gotestsum_passth_step_0-&gt;default___Run_everything_needed_task_test_build" style="stroke: #A80036; stroke-width: 1.0;"/><polygon fill="#A80036" points="396.95,626.3658,406.6701,624.7787,401.1321,623.6254,402.2854,618.0873,396.95,626.3658" style="stroke: #A80036; stroke-width: 1.0;"/><!--MD5=[6944898d36df9c932c458c660a4e45a3]
link default___Run_everything_needed_task_test_build to test_build___Build_tests--><path d="M355.39,665.7158 C344.29,681.5558 328.34,704.3058 316.49,721.2058 " fill="none" id="default___Run_everything_needed_task_test_build-&gt;test_build___Build_tests" style="stroke: #A80036; stroke-width: 1.0; stroke-dasharray: 7.0,7.0;"/><polygon fill="#A80036" points="313.57,725.3658,322.0176,720.3024,316.445,721.2751,315.4724,715.7025,313.57,725.3658" style="stroke: #A80036; stroke-width: 1.0;"/><!--MD5=[ffc4bc9550fa8c4ab26f30c5caa924cf]
link test_build___Build_tests to test_build___Build_tests_step_0--><path d="M287,764.7158 C275.58,780.5558 259.16,803.3058 246.96,820.2058 " fill="none" id="test_build___Build_tests-&gt;test_build___Build_tests_step_0" style="stroke: #A80036; stroke-width: 1.0;"/><polygon fill="#A80036" points="243.96,824.3658,252.4593,819.3898,246.877,820.3049,245.9619,814.7226,243.96,824.3658" style="stroke: #A80036; stroke-width: 1.0;"/><!--MD5=[7f18a51678c599311aafa6d5a06494cc]
link test_build___Build_tests_step_0 to test_build___Build_tests_step_1--><path d="M226.26,863.7158 C222.73,879.2858 217.68,901.5358 213.87,918.3458 " fill="none" id="test_build___Build_tests_step_0-&gt;test_build___Build_tests_step_1" style="stroke: #A80036; stroke-width: 1.0;"/><polygon fill="#A80036" points="212.73,923.3658,218.6361,915.4844,213.8449,918.4917,210.8375,913.7005,212.73,923.3658" style="stroke: #A80036; stroke-width: 1.0;"/><!--MD5=[0a8527fc7deac3cde0b728a112cbb17a]
link default___Run_everything_needed_task_test_build to default___Run_everything_needed_task_test_run--><path d="M378.86,665.6858 C386.82,681.1858 397.18,704.0658 401.5,725.5158 C423.24,833.3258 389.82,964.7758 374.02,1017.4958 " fill="none" id="default___Run_everything_needed_task_test_build-&gt;default___Run_everything_needed_task_test_run" style="stroke: #A80036; stroke-width: 1.0;"/><polygon fill="#A80036" points="372.55,1022.3458,378.9777,1014.8836,373.9933,1017.5587,371.3182,1012.5743,372.55,1022.3458" style="stroke: #A80036; stroke-width: 1.0;"/><!--MD5=[62763c4fb6cad297c7b729f041e285b6]
link test_build___Build_tests to default___Run_everything_needed_task_test_run--><path d="M304.73,764.9158 C316.3,816.6358 348.47,960.4158 361.21,1017.3558 " fill="none" id="test_build___Build_tests-&gt;default___Run_everything_needed_task_test_run" style="stroke: #A80036; stroke-width: 1.0;"/><polygon fill="#A80036" points="362.31,1022.2758,364.2294,1012.6158,361.2087,1017.3986,356.4259,1014.3779,362.31,1022.2758" style="stroke: #A80036; stroke-width: 1.0;"/><!--MD5=[ae2db248e2cbef9cf4d88720d5a6ec1f]
link test_build___Build_tests_step_1 to default___Run_everything_needed_task_test_run--><path d="M238.96,962.7158 C265.52,979.0258 304.03,1002.6658 331.77,1019.6958 " fill="none" id="test_build___Build_tests_step_1-&gt;default___Run_everything_needed_task_test_run" style="stroke: #A80036; stroke-width: 1.0;"/><polygon fill="#A80036" points="336.13,1022.3658,330.5539,1014.2476,331.8693,1019.7493,326.3675,1021.0647,336.13,1022.3658" style="stroke: #A80036; stroke-width: 1.0;"/><!--MD5=[8a36ec41387f92316bf6dc873dfa88bf]
link default___Run_everything_needed_task_test_run to test_run___Run_built_tests--><path d="M366.5,1061.7158 C366.5,1077.2858 366.5,1099.5358 366.5,1116.3458 " fill="none" id="default___Run_everything_needed_task_test_run-&gt;test_run___Run_built_tests" style="stroke: #A80036; stroke-width: 1.0; stroke-dasharray: 7.0,7.0;"/><polygon fill="#A80036" points="366.5,1121.3658,370.5,1112.3658,366.5,1116.3658,362.5,1112.3658,366.5,1121.3658" style="stroke: #A80036; stroke-width: 1.0;"/><!--MD5=[eb50135f8a941e8b7a7d02de997f2925]
link test_run___Run_built_tests to test_run___Run_built_tests_task_docker_up--><path d="M366.5,1160.7158 C366.5,1176.2858 366.5,1198.5358 366.5,1215.3458 " fill="none" id="test_run___Run_built_tests-&gt;test_run___Run_built_tests_task_docker_up" style="stroke: #A80036; stroke-width: 1.0;"/><polygon fill="#A80036" points="366.5,1220.3658,370.5,1211.3658,366.5,1215.3658,362.5,1211.3658,366.5,1220.3658" style="stroke: #A80036; stroke-width: 1.0;"/><!--MD5=[fe4e0f19a5a0e9c610c0729a0b1efe3c]
link test_run___Run_built_tests_task_docker_up to docker_up___Bring_up_docker_env--><path d="M383.08,1259.7158 C397.12,1275.5558 417.29,1298.3058 432.28,1315.2058 " fill="none" id="test_run___Run_built_tests_task_docker_up-&gt;docker_up___Bring_up_docker_env" style="stroke: #A80036; stroke-width: 1.0; stroke-dasharray: 7.0,7.0;"/><polygon fill="#A80036" points="435.97,1319.3658,432.9982,1309.976,432.6553,1315.6225,427.0088,1315.2796,435.97,1319.3658" style="stroke: #A80036; stroke-width: 1.0;"/><!--MD5=[d950305fdf6812889579ec82984b849d]
link docker_up___Bring_up_docker_env to docker_up___Bring_up_docker_env_step_0--><path d="M465.03,1358.7158 C475.64,1374.5558 490.89,1397.3058 502.22,1414.2058 " fill="none" id="docker_up___Bring_up_docker_env-&gt;docker_up___Bring_up_docker_env_step_0" style="stroke: #A80036; stroke-width: 1.0;"/><polygon fill="#A80036" points="505.01,1418.3658,503.3228,1408.6626,502.2266,1414.2122,496.677,1413.116,505.01,1418.3658" style="stroke: #A80036; stroke-width: 1.0;"/><!--MD5=[5e08c27b0f1f6ca60898865665fd72d2]
link test_run___Run_built_tests_task_docker_up to test_run___Run_built_tests_step_1--><path d="M350.15,1259.8058 C338.23,1274.8258 323.06,1297.0258 316.5,1319.5158 C296.47,1388.2358 325.23,1472.6858 341.95,1512.7758 " fill="none" id="test_run___Run_built_tests_task_docker_up-&gt;test_run___Run_built_tests_step_1" style="stroke: #A80036; stroke-width: 1.0;"/><polygon fill="#A80036" points="343.93,1517.4358,344.124,1507.5889,341.9897,1512.8277,336.7509,1510.6934,343.93,1517.4358" style="stroke: #A80036; stroke-width: 1.0;"/><!--MD5=[5afd6c315d200624342eb2f98d8ead56]
link docker_up___Bring_up_docker_env to test_run___Run_built_tests_step_1--><path d="M433.61,1358.8058 C419.45,1373.8258 400.51,1396.0258 388.5,1418.5158 C372.26,1448.9058 362.18,1487.7258 356.96,1512.2358 " fill="none" id="docker_up___Bring_up_docker_env-&gt;test_run___Run_built_tests_step_1" style="stroke: #A80036; stroke-width: 1.0;"/><polygon fill="#A80036" points="355.91,1517.2358,361.6513,1509.2335,356.9235,1512.3396,353.8173,1507.6119,355.91,1517.2358" style="stroke: #A80036; stroke-width: 1.0;"/><!--MD5=[cea209b70eb05e36255bc36f68b4169d]
link docker_up___Bring_up_docker_env_step_0 to test_run___Run_built_tests_step_1--><path d="M485.69,1457.7158 C457.95,1474.0258 417.74,1497.6658 388.77,1514.6958 " fill="none" id="docker_up___Bring_up_docker_env_step_0-&gt;test_run___Run_built_tests_step_1" style="stroke: #A80036; stroke-width: 1.0;"/><polygon fill="#A80036" points="384.22,1517.3658,394.0073,1516.266,388.5337,1514.8376,389.9621,1509.3641,384.22,1517.3658" style="stroke: #A80036; stroke-width: 1.0;"/><!--MD5=[e74594d31dd9e9ef9303a796aac54ac5]
link test_run___Run_built_tests_step_1 to test_run___Run_built_tests_task_test_detail--><path d="M352.5,1556.7158 C352.5,1572.2858 352.5,1594.5358 352.5,1611.3458 " fill="none" id="test_run___Run_built_tests_step_1-&gt;test_run___Run_built_tests_task_test_detail" style="stroke: #A80036; stroke-width: 1.0;"/><polygon fill="#A80036" points="352.5,1616.3658,356.5,1607.3658,352.5,1611.3658,348.5,1607.3658,352.5,1616.3658" style="stroke: #A80036; stroke-width: 1.0;"/><!--MD5=[2f513f763ba332968c9cf390f140609c]
link test_run___Run_built_tests_task_test_detail to test_detail--><path d="M343.25,1655.7158 C335.48,1671.4158 324.34,1693.9258 316,1710.7758 " fill="none" id="test_run___Run_built_tests_task_test_detail-&gt;test_detail" style="stroke: #A80036; stroke-width: 1.0; stroke-dasharray: 7.0,7.0;"/><polygon fill="#A80036" points="313.73,1715.3658,321.3085,1709.0757,315.9489,1710.8852,314.1394,1705.5255,313.73,1715.3658" style="stroke: #A80036; stroke-width: 1.0;"/><!--MD5=[80f264e203532ba76d9e688103538fbd]
link test_detail to test_detail_step_0--><path d="M275.96,1754.7158 C251.19,1770.9558 215.32,1794.4658 189.35,1811.4858 " fill="none" id="test_detail-&gt;test_detail_step_0" style="stroke: #A80036; stroke-width: 1.0;"/><polygon fill="#A80036" points="184.95,1814.3658,194.6701,1812.7787,189.1321,1811.6254,190.2854,1806.0873,184.95,1814.3658" style="stroke: #A80036; stroke-width: 1.0;"/><!--MD5=[4c4a467bd5b720e46f0762caebadd1a0]
link test_detail_step_0 to test_detail_step_1--><path d="M153.61,1853.7158 C151.2,1869.2858 147.76,1891.5358 145.16,1908.3458 " fill="none" id="test_detail_step_0-&gt;test_detail_step_1" style="stroke: #A80036; stroke-width: 1.0;"/><polygon fill="#A80036" points="144.38,1913.3658,149.6966,1905.0753,145.1371,1908.4235,141.7888,1903.864,144.38,1913.3658" style="stroke: #A80036; stroke-width: 1.0;"/><!--MD5=[c3b0b9f14d61eb8f9910857dc87b3d64]
link test_run___Run_built_tests_task_test_detail to test_run___Run_built_tests_task_test_coverage--><path d="M356.47,1655.6258 C359.63,1671.4658 363.8,1694.8658 365.5,1715.5158 C371.72,1791.1758 356.06,1904.3058 348.5,1952.5158 C345.58,1971.1358 340.75,1991.9058 336.82,2007.3958 " fill="none" id="test_run___Run_built_tests_task_test_detail-&gt;test_run___Run_built_tests_task_test_coverage" style="stroke: #A80036; stroke-width: 1.0;"/><polygon fill="#A80036" points="335.53,2012.4458,341.6417,2004.7227,336.7729,2007.6028,333.8928,2002.734,335.53,2012.4458" style="stroke: #A80036; stroke-width: 1.0;"/><!--MD5=[382d0ccb52d0396b0c15c961cc63e81d]
link test_detail to test_run___Run_built_tests_task_test_coverage--><path d="M306.17,1754.9158 C310.72,1806.5358 323.35,1949.8358 328.38,2007.0158 " fill="none" id="test_detail-&gt;test_run___Run_built_tests_task_test_coverage" style="stroke: #A80036; stroke-width: 1.0;"/><polygon fill="#A80036" points="328.85,2012.2758,332.0357,2002.9564,328.4064,2007.2956,324.0672,2003.6663,328.85,2012.2758" style="stroke: #A80036; stroke-width: 1.0;"/><!--MD5=[31baffd7867e4cf08cf892b573ec3bea]
link test_detail_step_1 to test_run___Run_built_tests_task_test_coverage--><path d="M177.94,1952.7158 C209.84,1969.0858 256.15,1992.8558 289.37,2009.9058 " fill="none" id="test_detail_step_1-&gt;test_run___Run_built_tests_task_test_coverage" style="stroke: #A80036; stroke-width: 1.0;"/><polygon fill="#A80036" points="294.17,2012.3658,287.9869,2004.6997,289.7209,2010.0843,284.3364,2011.8183,294.17,2012.3658" style="stroke: #A80036; stroke-width: 1.0;"/><!--MD5=[a1626d0a65c7c8833f60eb39014b1a26]
link test_run___Run_built_tests_task_test_coverage to test_coverage--><path d="M340.91,2051.7158 C349.65,2067.4158 362.18,2089.9258 371.56,2106.7758 " fill="none" id="test_run___Run_built_tests_task_test_coverage-&gt;test_coverage" style="stroke: #A80036; stroke-width: 1.0; stroke-dasharray: 7.0,7.0;"/><polygon fill="#A80036" points="374.12,2111.3658,373.2214,2101.5581,371.6809,2107.0011,366.2378,2105.4606,374.12,2111.3658" style="stroke: #A80036; stroke-width: 1.0;"/><!--MD5=[8f353adf782fa754a9a0ff357a714a99]
link test_coverage to test_coverage_step_0--><path d="M416.31,2150.7158 C444.05,2167.0258 484.26,2190.6658 513.23,2207.6958 " fill="none" id="test_coverage-&gt;test_coverage_step_0" style="stroke: #A80036; stroke-width: 1.0;"/><polygon fill="#A80036" points="517.78,2210.3658,512.0379,2202.3641,513.4663,2207.8376,507.9927,2209.266,517.78,2210.3658" style="stroke: #A80036; stroke-width: 1.0;"/><!--MD5=[2ddbc8d81ecaef0c0f5923e8084f1d14]
link test_run___Run_built_tests_task_test_coverage to test_run___Run_built_tests_task_docker_down--><path d="M324.61,2051.8158 C320.01,2067.5858 313.97,2090.7658 311.5,2111.5158 C303.1,2181.9458 325.95,2264.4158 339.04,2304.1858 " fill="none" id="test_run___Run_built_tests_task_test_coverage-&gt;test_run___Run_built_tests_task_docker_down" style="stroke: #A80036; stroke-width: 1.0;"/><polygon fill="#A80036" points="340.75,2309.2758,341.6898,2299.4719,339.1646,2304.5339,334.1026,2302.0086,340.75,2309.2758" style="stroke: #A80036; stroke-width: 1.0;"/><!--MD5=[4f6efba43a72a42f425c7823e42def7f]
link test_coverage to test_run___Run_built_tests_task_docker_down--><path d="M380.95,2150.8058 C374.18,2186.6658 359.44,2264.7658 351.99,2304.2058 " fill="none" id="test_coverage-&gt;test_run___Run_built_tests_task_docker_down" style="stroke: #A80036; stroke-width: 1.0;"/><polygon fill="#A80036" points="351.04,2309.2758,356.6415,2301.175,351.9683,2304.3628,348.7806,2299.6897,351.04,2309.2758" style="stroke: #A80036; stroke-width: 1.0;"/><!--MD5=[c6ab94164f682433fbe93c9a4acb6350]
link test_coverage_step_0 to test_run___Run_built_tests_task_docker_down--><path d="M510.55,2249.7158 C476.32,2266.1558 426.56,2290.0558 391.03,2307.1158 " fill="none" id="test_coverage_step_0-&gt;test_run___Run_built_tests_task_docker_down" style="stroke: #A80036; stroke-width: 1.0;"/><polygon fill="#A80036" points="386.33,2309.3658,396.1751,2309.0946,390.8414,2307.2101,392.7259,2301.8764,386.33,2309.3658" style="stroke: #A80036; stroke-width: 1.0;"/><!--MD5=[1655a0f0c82fbf789f091469d76ff036]
link test_run___Run_built_tests_task_docker_down to docker_down___Bring_down_docker_env--><path d="M347.5,2348.7158 C347.5,2364.2858 347.5,2386.5358 347.5,2403.3458 " fill="none" id="test_run___Run_built_tests_task_docker_down-&gt;docker_down___Bring_down_docker_env" style="stroke: #A80036; stroke-width: 1.0; stroke-dasharray: 7.0,7.0;"/><polygon fill="#A80036" points="347.5,2408.3658,351.5,2399.3658,347.5,2403.3658,343.5,2399.3658,347.5,2408.3658" style="stroke: #A80036; stroke-width: 1.0;"/><!--MD5=[6f958569f6c43b0f1721694aaa36cd34]
link docker_down___Bring_down_docker_env to docker_down___Bring_down_docker_env_step_0--><path d="M347.5,2447.7158 C347.5,2463.2858 347.5,2485.5358 347.5,2502.3458 " fill="none" id="docker_down___Bring_down_docker_env-&gt;docker_down___Bring_down_docker_env_step_0" style="stroke: #A80036; stroke-width: 1.0;"/><polygon fill="#A80036" points="347.5,2507.3658,351.5,2498.3658,347.5,2502.3658,343.5,2498.3658,347.5,2507.3658" style="stroke: #A80036; stroke-width: 1.0;"/><!--MD5=[42c32a5838049a3d000efa26858abaa7]
@startuml
title Atkins project tests, build

skinparam componentStyle rectangle
skinparam defaultTextAlignment center
top to bottom direction

component "goimports -w ." as fmt___Format_the_code_step_0 #WhiteSmoke
component "default - Run everything needed" as default___Run_everything_needed #LightGreen
component "task: test:simple" as default___Run_everything_needed_task_test_simple #Khaki
component "./bin/${{ item }} -test.cov... (100 execs)" as test_detail_step_1 #WhiteSmoke
component "docker compose down" as docker_down___Bring_down_docker_env_step_0 #WhiteSmoke
component "fmt - Format the code" as fmt___Format_the_code #LightGreen
component "test:run - Run built tests" as test_run___Run_built_tests #LightGreen
component "rm -rf coverage" as test_run___Run_built_tests_step_1 #WhiteSmoke
component "task: docker:down" as test_run___Run_built_tests_task_docker_down #Khaki
component "go test -cover -coverpkg=./..." as test_build___Build_tests_step_1 #WhiteSmoke
component "test:build - Build tests" as test_build___Build_tests #LightGreen
component "test:coverage" as test_coverage #LightGreen
component "docker:down - Bring down docker env" as docker_down___Bring_down_docker_env #LightGreen
component "task: docker:up" as test_run___Run_built_tests_task_docker_up #Khaki
component "test:detail" as test_detail #LightGreen
component "Atkins project tests, build" as Atkins_project_tests__build #LightBlue
component "gofumpt -w ." as fmt___Format_the_code_step_2 #WhiteSmoke
component "task: test:build" as default___Run_everything_needed_task_test_build #Khaki
component "covertrace - -name ${{ funcN... (100 execs)" as test_coverage_step_0 #WhiteSmoke
component "gotestsum ./... - - -count 1" as test_simple___Simple_go_test_with_gotestsum_passth_step_0 #WhiteSmoke
component "rm bin/*.test -f" as test_build___Build_tests_step_0 #WhiteSmoke
component "task: test:run" as default___Run_everything_needed_task_test_run #Khaki
component "docker:up - Bring up docker env" as docker_up___Bring_up_docker_env #LightGreen
component "docker compose up -d - -wait..." as docker_up___Bring_up_docker_env_step_0 #WhiteSmoke
component "task: test:detail" as test_run___Run_built_tests_task_test_detail #Khaki
component "mkdir -p coverage/${{ item }}" as test_detail_step_0 #WhiteSmoke
component "task: test:coverage" as test_run___Run_built_tests_task_test_coverage #Khaki
component "goimports-reviser -set-alia..." as fmt___Format_the_code_step_1 #WhiteSmoke
component "go mod tidy" as fmt___Format_the_code_step_3 #WhiteSmoke
component "test:simple - Simple go test with gotestsum (passthru)" as test_simple___Simple_go_test_with_gotestsum_passth #LightGreen

Atkins_project_tests__build - -> fmt___Format_the_code
fmt___Format_the_code - -> fmt___Format_the_code_step_0
fmt___Format_the_code_step_0 - -> fmt___Format_the_code_step_1
fmt___Format_the_code_step_1 - -> fmt___Format_the_code_step_2
fmt___Format_the_code_step_2 - -> fmt___Format_the_code_step_3
Atkins_project_tests__build - -> default___Run_everything_needed
fmt___Format_the_code - -> default___Run_everything_needed
default___Run_everything_needed - -> default___Run_everything_needed_task_test_simple
default___Run_everything_needed_task_test_simple ..> test_simple___Simple_go_test_with_gotestsum_passth
test_simple___Simple_go_test_with_gotestsum_passth - -> test_simple___Simple_go_test_with_gotestsum_passth_step_0
default___Run_everything_needed_task_test_simple - -> default___Run_everything_needed_task_test_build
test_simple___Simple_go_test_with_gotestsum_passth - -> default___Run_everything_needed_task_test_build
test_simple___Simple_go_test_with_gotestsum_passth_step_0 - -> default___Run_everything_needed_task_test_build
default___Run_everything_needed_task_test_build ..> test_build___Build_tests
test_build___Build_tests - -> test_build___Build_tests_step_0
test_build___Build_tests_step_0 - -> test_build___Build_tests_step_1
default___Run_everything_needed_task_test_build - -> default___Run_everything_needed_task_test_run
test_build___Build_tests - -> default___Run_everything_needed_task_test_run
test_build___Build_tests_step_1 - -> default___Run_everything_needed_task_test_run
default___Run_everything_needed_task_test_run ..> test_run___Run_built_tests
test_run___Run_built_tests - -> test_run___Run_built_tests_task_docker_up
test_run___Run_built_tests_task_docker_up ..> docker_up___Bring_up_docker_env
docker_up___Bring_up_docker_env - -> docker_up___Bring_up_docker_env_step_0
test_run___Run_built_tests_task_docker_up - -> test_run___Run_built_tests_step_1
docker_up___Bring_up_docker_env - -> test_run___Run_built_tests_step_1
docker_up___Bring_up_docker_env_step_0 - -> test_run___Run_built_tests_step_1
test_run___Run_built_tests_step_1 - -> test_run___Run_built_tests_task_test_detail
test_run___Run_built_tests_task_test_detail ..> test_detail
test_detail - -> test_detail_step_0
test_detail_step_0 - -> test_detail_step_1
test_run___Run_built_tests_task_test_detail - -> test_run___Run_built_tests_task_test_coverage
test_detail - -> test_run___Run_built_tests_task_test_coverage
test_detail_step_1 - -> test_run___Run_built_tests_task_test_coverage
test_run___Run_built_tests_task_test_coverage ..> test_coverage
test_coverage - -> test_coverage_step_0
test_run___Run_built_tests_task_test_coverage - -> test_run___Run_built_tests_task_docker_down
test_coverage - -> test_run___Run_built_tests_task_docker_down
test_coverage_step_0 - -> test_run___Run_built_tests_task_docker_down
test_run___Run_built_tests_task_docker_down ..> docker_down___Bring_down_docker_env
docker_down___Bring_down_docker_env - -> docker_down___Bring_down_docker_env_step_0

@enduml

PlantUML version 1.2020.02(Sun Mar 01 11:22:07 CET 2020)
(GPL source distribution)
Java Runtime: OpenJDK Runtime Environment
JVM: OpenJDK 64-Bit Server VM
Java Version: 21.0.9+10-Ubuntu-125.10
Operating System: Linux
Default Encoding: UTF-8
Language: en
Country: US
--></g></svg>