<?xml version="1.0" encoding="UTF-8" standalone="no"?><svg xmlns="http://www.w3.org/2000/svg" xmlns:xlink="http://www.w3.org/1999/xlink" contentScriptType="application/ecmascript" contentStyleType="text/css" height="271px" preserveAspectRatio="none" style="width:6340px;height:271px;" version="1.1" viewBox="0 0 6340 271" width="6340px" zoomAndPan="magnify"><defs><filter height="300%" id="f1ipqj8y7l971n" width="300%" x="-1" y="-1"><feGaussianBlur result="blurOut" stdDeviation="2.0"/><feColorMatrix in="blurOut" result="blurOut2" type="matrix" values="0 0 0 0 0 0 0 0 0 0 0 0 0 0 0 0 0 0 .4 0"/><feOffset dx="4.0" dy="4.0" in="blurOut2" result="blurOut3"/><feBlend in="SourceGraphic" in2="blurOut3" mode="normal"/></filter></defs><g><text fill="#000000" font-family="sans-serif" font-size="18" lengthAdjust="spacingAndGlyphs" textLength="219" x="3064" y="19.2419">Atkins project tests, build</text><!--MD5=[56ac309112daf3ba4bddb41e2d0ea2cc]
entity default___Run_everything_needed_task_test_simple--><rect fill="#F0E68C" filter="url(#f1ipqj8y7l971n)" height="39.0679" style="stroke: #A80036; stroke-width: 1.5;" width="129" x="821.5" y="113.0358"/><rect fill="#F0E68C" height="5" style="stroke: #A80036; stroke-width: 1.5;" width="10" x="816.5" y="118.0358"/><rect fill="#F0E68C" height="5" style="stroke: #A80036; stroke-width: 1.5;" width="10" x="816.5" y="142.1038"/><text fill="#000000" font-family="sans-serif" font-size="14" lengthAdjust="spacingAndGlyphs" textLength="109" x="831.5" y="138.0018">task: test:simple</text><!--MD5=[d6a04fb1bdf23e63eddd2239c9ddba9c]
entity test_simple___Simple_go_test_with_gotestsum_passth_step_0--><rect fill="#F5F5F5" filter="url(#f1ipqj8y7l971n)" height="39.0679" style="stroke: #A80036; stroke-width: 1.5;" width="189" x="1494" y="185.0358"/><rect fill="#F5F5F5" height="5" style="stroke: #A80036; stroke-width: 1.5;" width="10" x="1489" y="190.0358"/><rect fill="#F5F5F5" height="5" style="stroke: #A80036; stroke-width: 1.5;" width="10" x="1489" y="214.1038"/><text fill="#000000" font-family="sans-serif" font-size="14" lengthAdjust="spacingAndGlyphs" textLength="169" x="1504" y="210.0018">gotestsum ./... -- -count 1</text><!--MD5=[0bd34a654f22ffae4a3989c29503a8ee]
entity test_build___Build_tests_step_1--><rect fill="#F5F5F5" filter="url(#f1ipqj8y7l971n)" height="39.0679" style="stroke: #A80036; stroke-width: 1.5;" width="210" x="2331" y="77.0358"/><rect fill="#F5F5F5" height="5" style="stroke: #A80036; stroke-width: 1.5;" width="10" x="2326" y="82.0358"/><rect fill="#F5F5F5" height="5" style="stroke: #A80036; stroke-width: 1.5;" width="10" x="2326" y="106.1038"/><text fill="#000000" font-family="sans-serif" font-size="14" lengthAdjust="spacingAndGlyphs" textLength="190" x="2341" y="102.0018">go test -cover -coverpkg=./...</text><!--MD5=[e7a206f44abdadb6f3eee10b8a5a8959]
entity test_detail_step_1--><rect fill="#F5F5F5" filter="url(#f1ipqj8y7l971n)" height="39.0679" style="stroke: #A80036; stroke-width: 1.5;" width="271" x="4560" y="78.0358"/><rect fill="#F5F5F5" height="5" style="stroke: #A80036; stroke-width: 1.5;" width="10" x="4555" y="83.0358"/><rect fill="#F5F5F5" height="5" style="stroke: #A80036; stroke-width: 1.5;" width="10" x="4555" y="107.1038"/><text fill="#000000" font-family="sans-serif" font-size="14" lengthAdjust="spacingAndGlyphs" textLength="251" x="4570" y="103.0018">./bin/${{ item }} -test.cov... (100 execs)</text><!--MD5=[051a64ef173ca84a7ea30631edee106a]
entity test_run___Run_built_tests_task_docker_down--><rect fill="#F0E68C" filter="url(#f1ipqj8y7l971n)" height="39.0679" style="stroke: #A80036; stroke-width: 1.5;" width="141" x="5624" y="112.0358"/><rect fill="#F0E68C" height="5" style="stroke: #A80036; stroke-width: 1.5;" width="10" x="5619" y="117.0358"/><rect fill="#F0E68C" height="5" style="stroke: #A80036; stroke-width: 1.5;" width="10" x="5619" y="141.1038"/><text fill="#000000" font-family="sans-serif" font-size="14" lengthAdjust="spacingAndGlyphs" textLength="121" x="5634" y="137.0018">task: docker:down</text><!--MD5=[1131a81315d5be0689d4aa972887c556]
entity fmt___Format_the_code_step_1--><rect fill="#F5F5F5" filter="url(#f1ipqj8y7l971n)" height="39.0679" style="stroke: #A80036; stroke-width: 1.5;" width="210" x="781" y="39.0358"/><rect fill="#F5F5F5" height="5" style="stroke: #A80036; stroke-width: 1.5;" width="10" x="776" y="44.0358"/><rect fill="#F5F5F5" height="5" style="stroke: #A80036; stroke-width: 1.5;" width="10" x="776" y="68.1038"/><text fill="#000000" font-family="sans-serif" font-size="14" lengthAdjust="spacingAndGlyphs" textLength="190" x="791" y="64.0018">goimports-reviser -set-alia...</text><!--MD5=[1361de0fc8e1876b46192da0e20a75b6]
entity fmt___Format_the_code_step_3--><rect fill="#F5F5F5" filter="url(#f1ipqj8y7l971n)" height="39.0679" style="stroke: #A80036; stroke-width: 1.5;" width="100" x="1538.5" y="39.0358"/><rect fill="#F5F5F5" height="5" style="stroke: #A80036; stroke-width: 1.5;" width="10" x="1533.5" y="44.0358"/><rect fill="#F5F5F5" height="5" style="stroke: #A80036; stroke-width: 1.5;" width="10" x="1533.5" y="68.1038"/><text fill="#000000" font-family="sans-serif" font-size="14" lengthAdjust="spacingAndGlyphs" textLength="80" x="1548.5" y="64.0018">go mod tidy</text><!--MD5=[021330a0a53d91219d3b0b190fd54646]
entity test_build___Build_tests--><rect fill="#90EE90" filter="url(#f1ipqj8y7l971n)" height="39.0679" style="stroke: #A80036; stroke-width: 1.5;" width="168" x="1922" y="148.0358"/><rect fill="#90EE90" height="5" style="stroke: #A80036; stroke-width: 1.5;" width="10" x="1917" y="153.0358"/><rect fill="#90EE90" height="5" style="stroke: #A80036; stroke-width: 1.5;" width="10" x="1917" y="177.1038"/><text fill="#000000" font-family="sans-serif" font-size="14" lengthAdjust="spacingAndGlyphs" textLength="148" x="1932" y="173.0018">test:build - Build tests</text><!--MD5=[3ededdb2af514d3c3107e60c142dc8a2]
entity fmt___Format_the_code--><rect fill="#90EE90" filter="url(#f1ipqj8y7l971n)" height="39.0679" style="stroke: #A80036; stroke-width: 1.5;" width="165" x="257" y="40.0358"/><rect fill="#90EE90" height="5" style="stroke: #A80036; stroke-width: 1.5;" width="10" x="252" y="45.0358"/><rect fill="#90EE90" height="5" style="stroke: #A80036; stroke-width: 1.5;" width="10" x="252" y="69.1038"/><text fill="#000000" font-family="sans-serif" font-size="14" lengthAdjust="spacingAndGlyphs" textLength="145" x="267" y="65.0018">fmt - Format the code</text><!--MD5=[3b6d01097fd17d31d3da60220f7d66d9]
entity test_run___Run_built_tests--><rect fill="#90EE90" filter="url(#f1ipqj8y7l971n)" height="39.0679" style="stroke: #A80036; stroke-width: 1.5;" width="184" x="2769" y="150.0358"/><rect fill="#90EE90" height="5" style="stroke: #A80036; stroke-width: 1.5;" width="10" x="2764" y="155.0358"/><rect fill="#90EE90" height="5" style="stroke: #A80036; stroke-width: 1.5;" width="10" x="2764" y="179.1038"/><text fill="#000000" font-family="sans-serif" font-size="14" lengthAdjust="spacingAndGlyphs" textLength="164" x="2779" y="175.0018">test:run - Run built tests</text><!--MD5=[91d92b020fef7f2048dc41ab8cf19424]
entity docker_down___Bring_down_docker_env--><rect fill="#90EE90" filter="url(#f1ipqj8y7l971n)" height="39.0679" style="stroke: #A80036; stroke-width: 1.5;" width="274" x="5825" y="112.0358"/><rect fill="#90EE90" height="5" style="stroke: #A80036; stroke-width: 1.5;" width="10" x="5820" y="117.0358"/><rect fill="#90EE90" height="5" style="stroke: #A80036; stroke-width: 1.5;" width="10" x="5820" y="141.1038"/><text fill="#000000" font-family="sans-serif" font-size="14" lengthAdjust="spacingAndGlyphs" textLength="254" x="5835" y="137.0018">docker:down - Bring down docker env</text><!--MD5=[f5e62a6843217c4275710b96abf5e8fc]
entity docker_down___Bring_down_docker_env_step_0--><rect fill="#F5F5F5" filter="url(#f1ipqj8y7l971n)" height="39.0679" style="stroke: #A80036; stroke-width: 1.5;" width="170" x="6159" y="112.0358"/><rect fill="#F5F5F5" height="5" style="stroke: #A80036; stroke-width: 1.5;" width="10" x="6154" y="117.0358"/><rect fill="#F5F5F5" height="5" style="stroke: #A80036; stroke-width: 1.5;" width="10" x="6154" y="141.1038"/><text fill="#000000" font-family="sans-serif" font-size="14" lengthAdjust="spacingAndGlyphs" textLength="150" x="6169" y="137.0018">docker compose down</text><!--MD5=[a0199f448818eecf2d9281850ae74da1]
entity default___Run_everything_needed_task_test_build--><rect fill="#F0E68C" filter="url(#f1ipqj8y7l971n)" height="39.0679" style="stroke: #A80036; stroke-width: 1.5;" width="119" x="1743" y="185.0358"/><rect fill="#F0E68C" height="5" style="stroke: #A80036; stroke-width: 1.5;" width="10" x="1738" y="190.0358"/><rect fill="#F0E68C" height="5" style="stroke: #A80036; stroke-width: 1.5;" width="10" x="1738" y="214.1038"/><text fill="#000000" font-family="sans-serif" font-size="14" lengthAdjust="spacingAndGlyphs" textLength="99" x="1753" y="210.0018">task: test:build</text><!--MD5=[797a45346090a07bd3d6fb66e5a4e096]
entity test_build___Build_tests_step_0--><rect fill="#F5F5F5" filter="url(#f1ipqj8y7l971n)" height="39.0679" style="stroke: #A80036; stroke-width: 1.5;" width="121" x="2150" y="77.0358"/><rect fill="#F5F5F5" height="5" style="stroke: #A80036; stroke-width: 1.5;" width="10" x="2145" y="82.0358"/><rect fill="#F5F5F5" height="5" style="stroke: #A80036; stroke-width: 1.5;" width="10" x="2145" y="106.1038"/><text fill="#000000" font-family="sans-serif" font-size="14" lengthAdjust="spacingAndGlyphs" textLength="101" x="2160" y="102.0018">rm bin/*.test -f</text><!--MD5=[7be8f3a91261359d1de91db42b0f0c10]
entity test_run___Run_built_tests_task_docker_up--><rect fill="#F0E68C" filter="url(#f1ipqj8y7l971n)" height="39.0679" style="stroke: #A80036; stroke-width: 1.5;" width="122" x="3013" y="150.0358"/><rect fill="#F0E68C" height="5" style="stroke: #A80036; stroke-width: 1.5;" width="10" x="3008" y="155.0358"/><rect fill="#F0E68C" height="5" style="stroke: #A80036; stroke-width: 1.5;" width="10" x="3008" y="179.1038"/><text fill="#000000" font-family="sans-serif" font-size="14" lengthAdjust="spacingAndGlyphs" textLength="102" x="3023" y="175.0018">task: docker:up</text><!--MD5=[9927b46a325c12dfe6b3bde344e6266b]
entity docker_up___Bring_up_docker_env_step_0--><rect fill="#F5F5F5" filter="url(#f1ipqj8y7l971n)" height="39.0679" style="stroke: #A80036; stroke-width: 1.5;" width="223" x="3491" y="42.0358"/><rect fill="#F5F5F5" height="5" style="stroke: #A80036; stroke-width: 1.5;" width="10" x="3486" y="47.0358"/><rect fill="#F5F5F5" height="5" style="stroke: #A80036; stroke-width: 1.5;" width="10" x="3486" y="71.1038"/><text fill="#000000" font-family="sans-serif" font-size="14" lengthAdjust="spacingAndGlyphs" textLength="203" x="3501" y="67.0018">docker compose up -d --wait...</text><!--MD5=[b165162be2e65d2c5585f98e529c4a07]
entity test_simple___Simple_go_test_with_gotestsum_passth--><rect fill="#90EE90" filter="url(#f1ipqj8y7l971n)" height="39.0679" style="stroke: #A80036; stroke-width: 1.5;" width="383" x="1051" y="185.0358"/><rect fill="#90EE90" height="5" style="stroke: #A80036; stroke-width: 1.5;" width="10" x="1046" y="190.0358"/><rect fill="#90EE90" height="5" style="stroke: #A80036; stroke-width: 1.5;" width="10" x="1046" y="214.1038"/><text fill="#000000" font-family="sans-serif" font-size="14" lengthAdjust="spacingAndGlyphs" textLength="363" x="1061" y="210.0018">test:simple - Simple go test with gotestsum (passthru)</text><!--MD5=[9b2b697b95b037aa106df5094945ebf1]
entity docker_up___Bring_up_docker_env--><rect fill="#90EE90" filter="url(#f1ipqj8y7l971n)" height="39.0679" style="stroke: #A80036; stroke-width: 1.5;" width="236" x="3195" y="113.0358"/><rect fill="#90EE90" height="5" style="stroke: #A80036; stroke-width: 1.5;" width="10" x="3190" y="118.0358"/><rect fill="#90EE90" height="5" style="stroke: #A80036; stroke-width: 1.5;" width="10" x="3190" y="142.1038"/><text fill="#000000" font-family="sans-serif" font-size="14" lengthAdjust="spacingAndGlyphs" textLength="216" x="3205" y="138.0018">docker:up - Bring up docker env</text><!--MD5=[4245df49c58385652cf2dea6e7648977]
entity test_run___Run_built_tests_step_1--><rect fill="#F5F5F5" filter="url(#f1ipqj8y7l971n)" height="39.0679" style="stroke: #A80036; stroke-width: 1.5;" width="124" x="3774" y="115.0358"/><rect fill="#F5F5F5" height="5" style="stroke: #A80036; stroke-width: 1.5;" width="10" x="3769" y="120.0358"/><rect fill="#F5F5F5" height="5" style="stroke: #A80036; stroke-width: 1.5;" width="10" x="3769" y="144.1038"/><text fill="#000000" font-family="sans-serif" font-size="14" lengthAdjust="spacingAndGlyphs" textLength="104" x="3784" y="140.0018">rm -rf coverage</text><!--MD5=[4ebd854ee458ac53a767dfe723240dc9]
entity test_detail--><rect fill="#90EE90" filter="url(#f1ipqj8y7l971n)" height="39.0679" style="stroke: #A80036; stroke-width: 1.5;" width="87" x="4140" y="78.0358"/><rect fill="#90EE90" height="5" style="stroke: #A80036; stroke-width: 1.5;" width="10" x="4135" y="83.0358"/><rect fill="#90EE90" height="5" style="stroke: #A80036; stroke-width: 1.5;" width="10" x="4135" y="107.1038"/><text fill="#000000" font-family="sans-serif" font-size="14" lengthAdjust="spacingAndGlyphs" textLength="67" x="4150" y="103.0018">test:detail</text><!--MD5=[8fd2f11eaf5187ae3b0dd81093145946]
entity test_coverage--><rect fill="#90EE90" filter="url(#f1ipqj8y7l971n)" height="39.0679" style="stroke: #A80036; stroke-width: 1.5;" width="110" x="5096" y="114.0358"/><rect fill="#90EE90" height="5" style="stroke: #A80036; stroke-width: 1.5;" width="10" x="5091" y="119.0358"/><rect fill="#90EE90" height="5" style="stroke: #A80036; stroke-width: 1.5;" width="10" x="5091" y="143.1038"/><text fill="#000000" font-family="sans-serif" font-size="14" lengthAdjust="spacingAndGlyphs" textLength="90" x="5106" y="139.0018">test:coverage</text><!--MD5=[073990055fc8fe9d56d82101babb7839]
entity test_coverage_step_0--><rect fill="#F5F5F5" filter="url(#f1ipqj8y7l971n)" height="39.0679" style="stroke: #A80036; stroke-width: 1.5;" width="298" x="5266" y="185.0358"/><rect fill="#F5F5F5" height="5" style="stroke: #A80036; stroke-width: 1.5;" width="10" x="5261" y="190.0358"/><rect fill="#F5F5F5" height="5" style="stroke: #A80036; stroke-width: 1.5;" width="10" x="5261" y="214.1038"/><text fill="#000000" font-family="sans-serif" font-size="14" lengthAdjust="spacingAndGlyphs" textLength="278" x="5276" y="210.0018">covertrace --name ${{ funcN... (100 execs)</text><!--MD5=[9af7f6174e3838eb28903e2981581716]
entity fmt___Format_the_code_step_2--><rect fill="#F5F5F5" filter="url(#f1ipqj8y7l971n)" height="39.0679" style="stroke: #A80036; stroke-width: 1.5;" width="106" x="1189.5" y="39.0358"/><rect fill="#F5F5F5" height="5" style="stroke: #A80036; stroke-width: 1.5;" width="10" x="1184.5" y="44.0358"/><rect fill="#F5F5F5" height="5" style="stroke: #A80036; stroke-width: 1.5;" width="10" x="1184.5" y="68.1038"/><text fill="#000000" font-family="sans-serif" font-size="14" lengthAdjust="spacingAndGlyphs" textLength="86" x="1199.5" y="64.0018">gofumpt -w .</text><!--MD5=[a2829f0ee694c99bd63f8795b09f1954]
entity default___Run_everything_needed_task_test_run--><rect fill="#F0E68C" filter="url(#f1ipqj8y7l971n)" height="39.0679" style="stroke: #A80036; stroke-width: 1.5;" width="108" x="2601" y="150.0358"/><rect fill="#F0E68C" height="5" style="stroke: #A80036; stroke-width: 1.5;" width="10" x="2596" y="155.0358"/><rect fill="#F0E68C" height="5" style="stroke: #A80036; stroke-width: 1.5;" width="10" x="2596" y="179.1038"/><text fill="#000000" font-family="sans-serif" font-size="14" lengthAdjust="spacingAndGlyphs" textLength="88" x="2611" y="175.0018">task: test:run</text><!--MD5=[487418505b5cf5b37f0dde3836a556a5]
entity fmt___Format_the_code_step_0--><rect fill="#F5F5F5" filter="url(#f1ipqj8y7l971n)" height="39.0679" style="stroke: #A80036; stroke-width: 1.5;" width="117" x="543" y="39.0358"/><rect fill="#F5F5F5" height="5" style="stroke: #A80036; stroke-width: 1.5;" width="10" x="538" y="44.0358"/><rect fill="#F5F5F5" height="5" style="stroke: #A80036; stroke-width: 1.5;" width="10" x="538" y="68.1038"/><text fill="#000000" font-family="sans-serif" font-size="14" lengthAdjust="spacingAndGlyphs" textLength="97" x="553" y="64.0018">goimports -w .</text><!--MD5=[90a3f7475de9971408abdb5058c33638]
entity default___Run_everything_needed--><rect fill="#90EE90" filter="url(#f1ipqj8y7l971n)" height="39.0679" style="stroke: #A80036; stroke-width: 1.5;" width="239" x="482" y="113.0358"/><rect fill="#90EE90" height="5" style="stroke: #A80036; stroke-width: 1.5;" width="10" x="477" y="118.0358"/><rect fill="#90EE90" height="5" style="stroke: #A80036; stroke-width: 1.5;" width="10" x="477" y="142.1038"/><text fill="#000000" font-family="sans-serif" font-size="14" lengthAdjust="spacingAndGlyphs" textLength="219" x="492" y="138.0018">default - Run everything needed</text><!--MD5=[9f45675f9b891bcf7295bf9754adb242]
entity test_run___Run_built_tests_task_test_coverage--><rect fill="#F0E68C" filter="url(#f1ipqj8y7l971n)" height="39.0679" style="stroke: #A80036; stroke-width: 1.5;" width="145" x="4891" y="78.0358"/><rect fill="#F0E68C" height="5" style="stroke: #A80036; stroke-width: 1.5;" width="10" x="4886" y="83.0358"/><rect fill="#F0E68C" height="5" style="stroke: #A80036; stroke-width: 1.5;" width="10" x="4886" y="107.1038"/><text fill="#000000" font-family="sans-serif" font-size="14" lengthAdjust="spacingAndGlyphs" textLength="125" x="4901" y="103.0018">task: test:coverage</text><!--MD5=[1667952e388d01853625acaa6dc2f92f]
entity test_run___Run_built_tests_task_test_detail--><rect fill="#F0E68C" filter="url(#f1ipqj8y7l971n)" height="39.0679" style="stroke: #A80036; stroke-width: 1.5;" width="122" x="3958" y="115.0358"/><rect fill="#F0E68C" height="5" style="stroke: #A80036; stroke-width: 1.5;" width="10" x="3953" y="120.0358"/><rect fill="#F0E68C" height="5" style="stroke: #A80036; stroke-width: 1.5;" width="10" x="3953" y="144.1038"/><text fill="#000000" font-family="sans-serif" font-size="14" lengthAdjust="spacingAndGlyphs" textLength="102" x="3968" y="140.0018">task: test:detail</text><!--MD5=[368e13531aabc18d5f0ed0866ef18f86]
entity test_detail_step_0--><rect fill="#F5F5F5" filter="url(#f1ipqj8y7l971n)" height="39.0679" style="stroke: #A80036; stroke-width: 1.5;" width="213" x="4287" y="78.0358"/><rect fill="#F5F5F5" height="5" style="stroke: #A80036; stroke-width: 1.5;" width="10" x="4282" y="83.0358"/><rect fill="#F5F5F5" height="5" style="stroke: #A80036; stroke-width: 1.5;" width="10" x="4282" y="107.1038"/><text fill="#000000" font-family="sans-serif" font-size="14" lengthAdjust="spacingAndGlyphs" textLength="193" x="4297" y="103.0018">mkdir -p coverage/${{ item }}</text><!--MD5=[86fdb449fbb6188101604197eb66ce22]
entity Atkins_project_tests__build--><rect fill="#ADD8E6" filter="url(#f1ipqj8y7l971n)" height="39.0679" style="stroke: #A80036; stroke-width: 1.5;" width="191" x="6" y="77.0358"/><rect fill="#ADD8E6" height="5" style="stroke: #A80036; stroke-width: 1.5;" width="10" x="1" y="82.0358"/><rect fill="#ADD8E6" height="5" style="stroke: #A80036; stroke-width: 1.5;" width="10" x="1" y="106.1038"/><text fill="#000000" font-family="sans-serif" font-size="14" lengthAdjust="spacingAndGlyphs" textLength="171" x="16" y="102.0018">Atkins project tests, build</text><!--MD5=[e4f74bf80fa510533b62662641747078]
link Atkins_project_tests__build to fmt___Format_the_code--><path d="M197.13,81.6958 C215.18,78.8658 233.99,75.9158 251.78,73.1358 " fill="none" id="Atkins_project_tests__build-&gt;fmt___Format_the_code" style="stroke: #A80036; stroke-width: 1.0;"/><polygon fill="#A80036" points="256.77,72.3458,247.2608,69.7815,251.8298,73.1169,248.4945,77.6858,256.77,72.3458" style="stroke: #A80036; stroke-width: 1.0;"/><!--MD5=[25463d9e28b38e760acb7067a69c6c25]
link fmt___Format_the_code to fmt___Format_the_code_step_0--><path d="M422.05,59.2258 C459.38,59.0758 502.93,58.9058 537.67,58.7758 " fill="none" id="fmt___Format_the_code-&gt;fmt___Format_the_code_step_0" style="stroke: #A80036; stroke-width: 1.0;"/><polygon fill="#A80036" points="542.73,58.7558,533.7186,54.7816,537.73,58.7701,533.7415,62.7815,542.73,58.7558" style="stroke: #A80036; stroke-width: 1.0;"/><!--MD5=[81467571eb377a236d0957cf2e74e276]
link fmt___Format_the_code_step_0 to fmt___Format_the_code_step_1--><path d="M660.01,58.5358 C693.2,58.5358 736.06,58.5358 775.44,58.5358 " fill="none" id="fmt___Format_the_code_step_0-&gt;fmt___Format_the_code_step_1" style="stroke: #A80036; stroke-width: 1.0;"/><polygon fill="#A80036" points="780.72,58.5358,771.72,54.5358,775.72,58.5358,771.72,62.5358,780.72,58.5358" style="stroke: #A80036; stroke-width: 1.0;"/><!--MD5=[25b4f87e6373f4d6fae3e11c45f78902]
link fmt___Format_the_code_step_1 to fmt___Format_the_code_step_2--><path d="M991.44,58.5358 C1054.43,58.5358 1132.27,58.5358 1184.21,58.5358 " fill="none" id="fmt___Format_the_code_step_1-&gt;fmt___Format_the_code_step_2" style="stroke: #A80036; stroke-width: 1.0;"/><polygon fill="#A80036" points="1189.47,58.5358,1180.47,54.5358,1184.47,58.5358,1180.47,62.5358,1189.47,58.5358" style="stroke: #A80036; stroke-width: 1.0;"/><!--MD5=[c6a3f6da656ef52df3b5f4602e6adf92]
link fmt___Format_the_code_step_2 to fmt___Format_the_code_step_3--><path d="M1295.75,58.5358 C1359.82,58.5358 1467.92,58.5358 1533.01,58.5358 " fill="none" id="fmt___Format_the_code_step_2-&gt;fmt___Format_the_code_step_3" style="stroke: #A80036; stroke-width: 1.0;"/><polygon fill="#A80036" points="1538.39,58.5358,1529.39,54.5358,1533.39,58.5358,1529.39,62.5358,1538.39,58.5358" style="stroke: #A80036; stroke-width: 1.0;"/><!--MD5=[f0eec12e0f0d2d1d4caf6aa75c06ec40]
link Atkins_project_tests__build to default___Run_everything_needed--><path d="M197.05,103.3658 C276.29,109.0958 390.02,117.3158 476.55,123.5758 " fill="none" id="Atkins_project_tests__build-&gt;default___Run_everything_needed" style="stroke: #A80036; stroke-width: 1.0;"/><polygon fill="#A80036" points="481.69,123.9458,473.0111,119.2901,476.7037,123.5754,472.4184,127.2681,481.69,123.9458" style="stroke: #A80036; stroke-width: 1.0;"/><!--MD5=[6dca00603077d043c1d38ba01dd1ded0]
link fmt___Format_the_code to default___Run_everything_needed--><path d="M410.18,79.0958 C445.88,89.1258 489.38,101.3358 525.77,111.5558 " fill="none" id="fmt___Format_the_code-&gt;default___Run_everything_needed" style="stroke: #A80036; stroke-width: 1.0;"/><polygon fill="#A80036" points="530.63,112.9158,523.0356,106.6448,525.8138,111.5725,520.8862,114.3507,530.63,112.9158" style="stroke: #A80036; stroke-width: 1.0;"/><!--MD5=[7f3084bfb59c312780fab6cf7a452c2d]
link default___Run_everything_needed to default___Run_everything_needed_task_test_simple--><path d="M721.08,132.5358 C753.49,132.5358 787.53,132.5358 816.14,132.5358 " fill="none" id="default___Run_everything_needed-&gt;default___Run_everything_needed_task_test_simple" style="stroke: #A80036; stroke-width: 1.0;"/><polygon fill="#A80036" points="821.42,132.5358,812.42,128.5358,816.42,132.5358,812.42,136.5358,821.42,132.5358" style="stroke: #A80036; stroke-width: 1.0;"/><!--MD5=[88196b67e15580afe0742bdd6304d8ea]
link default___Run_everything_needed_task_test_simple to test_simple___Simple_go_test_with_gotestsum_passth--><path d="M950.79,145.4858 C1003.43,156.1858 1079.1,171.5558 1140.05,183.9258 " fill="none" id="default___Run_everything_needed_task_test_simple-&gt;test_simple___Simple_go_test_with_gotestsum_passth" style="stroke: #A80036; stroke-width: 1.0; stroke-dasharray: 7.0,7.0;"/><polygon fill="#A80036" points="1145.15,184.9658,1137.1316,179.247,1140.251,183.966,1135.5319,187.0854,1145.15,184.9658" style="stroke: #A80036; stroke-width: 1.0;"/><!--MD5=[c80029d32f8407b6bffc2c74b0ffc1bc]
link test_simple___Simple_go_test_with_gotestsum_passth to test_simple___Simple_go_test_with_gotestsum_passth_step_0--><path d="M1434.11,204.5358 C1452.8,204.5358 1471.18,204.5358 1488.38,204.5358 " fill="none" id="test_simple___Simple_go_test_with_gotestsum_passth-&gt;test_simple___Simple_go_test_with_gotestsum_passth_step_0" style="stroke: #A80036; stroke-width: 1.0;"/><polygon fill="#A80036" points="1493.68,204.5358,1484.68,200.5358,1488.68,204.5358,1484.68,208.5358,1493.68,204.5358" style="stroke: #A80036; stroke-width: 1.0;"/><!--MD5=[8feaeb7c5475f1cc09e69719b4ad30ab]
link default___Run_everything_needed_task_test_simple to default___Run_everything_needed_task_test_build--><path d="M950.55,129.8058 C1086.24,125.1758 1413.89,120.4258 1683,167.5358 C1703.35,171.0958 1725.08,177.1858 1744.3,183.3958 " fill="none" id="default___Run_everything_needed_task_test_simple-&gt;default___Run_everything_needed_task_test_build" style="stroke: #A80036; stroke-width: 1.0;"/><polygon fill="#A80036" points="1749.13,184.9758,1741.8268,178.368,1744.3795,183.4162,1739.3313,185.9689,1749.13,184.9758" style="stroke: #A80036; stroke-width: 1.0;"/><!--MD5=[9d26971c153c3461c87553a58330f64c]
link test_simple___Simple_go_test_with_gotestsum_passth to default___Run_everything_needed_task_test_build--><path d="M1331.88,224.1158 C1420.93,240.9958 1562.07,259.9758 1683,241.5358 C1703.92,238.3458 1726.22,232.1558 1745.77,225.7458 " fill="none" id="test_simple___Simple_go_test_with_gotestsum_passth-&gt;default___Run_everything_needed_task_test_build" style="stroke: #A80036; stroke-width: 1.0;"/><polygon fill="#A80036" points="1750.68,224.1158,1740.8761,223.176,1745.938,225.7013,1743.4128,230.7632,1750.68,224.1158" style="stroke: #A80036; stroke-width: 1.0;"/><!--MD5=[2052c208cda8ea9ad845064f8c03a0ef]
link test_simple___Simple_go_test_with_gotestsum_passth_step_0 to default___Run_everything_needed_task_test_build--><path d="M1683.1,204.5358 C1701.5,204.5358 1720.4,204.5358 1737.55,204.5358 " fill="none" id="test_simple___Simple_go_test_with_gotestsum_passth_step_0-&gt;default___Run_everything_needed_task_test_build" style="stroke: #A80036; stroke-width: 1.0;"/><polygon fill="#A80036" points="1742.81,204.5358,1733.81,200.5358,1737.81,204.5358,1733.81,208.5358,1742.81,204.5358" style="stroke: #A80036; stroke-width: 1.0;"/><!--MD5=[6944898d36df9c932c458c660a4e45a3]
link default___Run_everything_needed_task_test_build to test_build___Build_tests--><path d="M1862.05,193.7858 C1879.15,190.6458 1898.23,187.1358 1916.74,183.7458 " fill="none" id="default___Run_everything_needed_task_test_build-&gt;test_build___Build_tests" style="stroke: #A80036; stroke-width: 1.0; stroke-dasharray: 7.0,7.0;"/><polygon fill="#A80036" points="1921.94,182.7858,1912.3667,180.4726,1917.0218,183.6866,1913.8078,188.3417,1921.94,182.7858" style="stroke: #A80036; stroke-width: 1.0;"/><!--MD5=[ffc4bc9550fa8c4ab26f30c5caa924cf]
link test_build___Build_tests to test_build___Build_tests_step_0--><path d="M2062.87,147.9458 C2089.54,138.5958 2121.51,127.3858 2148.78,117.8258 " fill="none" id="test_build___Build_tests-&gt;test_build___Build_tests_step_0" style="stroke: #A80036; stroke-width: 1.0;"/><polygon fill="#A80036" points="2153.81,116.0558,2143.9928,115.2668,2149.0929,117.714,2146.6458,122.8141,2153.81,116.0558" style="stroke: #A80036; stroke-width: 1.0;"/><!--MD5=[7f18a51678c599311aafa6d5a06494cc]
link test_build___Build_tests_step_0 to test_build___Build_tests_step_1--><path d="M2271.1,96.5358 C2287.88,96.5358 2306.69,96.5358 2325.42,96.5358 " fill="none" id="test_build___Build_tests_step_0-&gt;test_build___Build_tests_step_1" style="stroke: #A80036; stroke-width: 1.0;"/><polygon fill="#A80036" points="2330.7,96.5358,2321.7,92.5358,2325.7,96.5358,2321.7,100.5358,2330.7,96.5358" style="stroke: #A80036; stroke-width: 1.0;"/><!--MD5=[0a8527fc7deac3cde0b728a112cbb17a]
link default___Run_everything_needed_task_test_build to default___Run_everything_needed_task_test_run--><path d="M1862.23,205.5958 C1920.15,206.3958 2011.2,206.9758 2090,204.5358 C2274.9,198.8058 2493.42,182.5258 2595.71,174.3458 " fill="none" id="default___Run_everything_needed_task_test_build-&gt;default___Run_everything_needed_task_test_run" style="stroke: #A80036; stroke-width: 1.0;"/><polygon fill="#A80036" points="2600.79,173.9458,2591.4989,170.6784,2595.806,174.3457,2592.1387,178.6528,2600.79,173.9458" style="stroke: #A80036; stroke-width: 1.0;"/><!--MD5=[62763c4fb6cad297c7b729f041e285b6]
link test_build___Build_tests to default___Run_everything_needed_task_test_run--><path d="M2090.26,167.7958 C2223.27,168.2058 2480.4,168.9958 2595.64,169.3558 " fill="none" id="test_build___Build_tests-&gt;default___Run_everything_needed_task_test_run" style="stroke: #A80036; stroke-width: 1.0;"/><polygon fill="#A80036" points="2600.69,169.3658,2591.7015,165.3401,2595.69,169.3516,2591.6786,173.3401,2600.69,169.3658" style="stroke: #A80036; stroke-width: 1.0;"/><!--MD5=[ae2db248e2cbef9cf4d88720d5a6ec1f]
link test_build___Build_tests_step_1 to default___Run_everything_needed_task_test_run--><path d="M2495.15,116.0958 C2526.37,126.6058 2564.74,139.5058 2595.95,150.0058 " fill="none" id="test_build___Build_tests_step_1-&gt;default___Run_everything_needed_task_test_run" style="stroke: #A80036; stroke-width: 1.0;"/><polygon fill="#A80036" points="2600.89,151.6658,2593.6228,145.0185,2596.148,150.0804,2591.0861,152.6057,2600.89,151.6658" style="stroke: #A80036; stroke-width: 1.0;"/><!--MD5=[8a36ec41387f92316bf6dc873dfa88bf]
link default___Run_everything_needed_task_test_run to test_run___Run_built_tests--><path d="M2709.07,169.5358 C2725.79,169.5358 2744.82,169.5358 2763.59,169.5358 " fill="none" id="default___Run_everything_needed_task_test_run-&gt;test_run___Run_built_tests" style="stroke: #A80036; stroke-width: 1.0; stroke-dasharray: 7.0,7.0;"/><polygon fill="#A80036" points="2768.88,169.5358,2759.88,165.5358,2763.88,169.5358,2759.88,173.5358,2768.88,169.5358" style="stroke: #A80036; stroke-width: 1.0;"/><!--MD5=[eb50135f8a941e8b7a7d02de997f2925]
link test_run___Run_built_tests to test_run___Run_built_tests_task_docker_up--><path d="M2953.01,169.5358 C2971.31,169.5358 2990.2,169.5358 3007.42,169.5358 " fill="none" id="test_run___Run_built_tests-&gt;test_run___Run_built_tests_task_docker_up" style="stroke: #A80036; stroke-width: 1.0;"/><polygon fill="#A80036" points="3012.71,169.5358,3003.71,165.5358,3007.71,169.5358,3003.71,173.5358,3012.71,169.5358" style="stroke: #A80036; stroke-width: 1.0;"/><!--MD5=[fe4e0f19a5a0e9c610c0729a0b1efe3c]
link test_run___Run_built_tests_task_docker_up to docker_up___Bring_up_docker_env--><path d="M3135.11,160.1458 C3151.78,157.5458 3170.51,154.6258 3189.38,151.6758 " fill="none" id="test_run___Run_built_tests_task_docker_up-&gt;docker_up___Bring_up_docker_env" style="stroke: #A80036; stroke-width: 1.0; stroke-dasharray: 7.0,7.0;"/><polygon fill="#A80036" points="3194.7,150.8458,3185.1908,148.2815,3189.7598,151.6169,3186.4245,156.1858,3194.7,150.8458" style="stroke: #A80036; stroke-width: 1.0;"/><!--MD5=[d950305fdf6812889579ec82984b849d]
link docker_up___Bring_up_docker_env to docker_up___Bring_up_docker_env_step_0--><path d="M3393.32,112.9458 C3431.82,103.4358 3478.08,92.0158 3517.21,82.3558 " fill="none" id="docker_up___Bring_up_docker_env-&gt;docker_up___Bring_up_docker_env_step_0" style="stroke: #A80036; stroke-width: 1.0;"/><polygon fill="#A80036" points="3522.44,81.0558,3512.7433,79.3312,3517.5859,82.2551,3514.6621,87.0977,3522.44,81.0558" style="stroke: #A80036; stroke-width: 1.0;"/><!--MD5=[5e08c27b0f1f6ca60898865665fd72d2]
link test_run___Run_built_tests_task_docker_up to test_run___Run_built_tests_step_1--><path d="M3135.19,171.1158 C3206,172.6158 3327.11,174.0258 3431,169.5358 C3550.24,164.3758 3688.72,150.7058 3768.67,142.0558 " fill="none" id="test_run___Run_built_tests_task_docker_up-&gt;test_run___Run_built_tests_step_1" style="stroke: #A80036; stroke-width: 1.0;"/><polygon fill="#A80036" points="3773.85,141.4858,3764.469,138.4864,3768.8795,142.0286,3765.3374,146.4392,3773.85,141.4858" style="stroke: #A80036; stroke-width: 1.0;"/><!--MD5=[5afd6c315d200624342eb2f98d8ead56]
link docker_up___Bring_up_docker_env to test_run___Run_built_tests_step_1--><path d="M3431.25,132.9858 C3535.29,133.3858 3683.59,133.9558 3768.48,134.2758 " fill="none" id="docker_up___Bring_up_docker_env-&gt;test_run___Run_built_tests_step_1" style="stroke: #A80036; stroke-width: 1.0;"/><polygon fill="#A80036" points="3773.73,134.2958,3764.753,130.2445,3768.7301,134.2673,3764.7073,138.2444,3773.73,134.2958" style="stroke: #A80036; stroke-width: 1.0;"/><!--MD5=[cea209b70eb05e36255bc36f68b4169d]
link docker_up___Bring_up_docker_env_step_0 to test_run___Run_built_tests_step_1--><path d="M3665.54,81.0958 C3697.45,91.1558 3736.36,103.4258 3768.84,113.6758 " fill="none" id="docker_up___Bring_up_docker_env_step_0-&gt;test_run___Run_built_tests_step_1" style="stroke: #A80036; stroke-width: 1.0;"/><polygon fill="#A80036" points="3773.99,115.2958,3766.6039,108.7809,3769.2201,113.7963,3764.2047,116.4126,3773.99,115.2958" style="stroke: #A80036; stroke-width: 1.0;"/><!--MD5=[e74594d31dd9e9ef9303a796aac54ac5]
link test_run___Run_built_tests_step_1 to test_run___Run_built_tests_task_test_detail--><path d="M3898.03,134.5358 C3915.66,134.5358 3934.97,134.5358 3952.85,134.5358 " fill="none" id="test_run___Run_built_tests_step_1-&gt;test_run___Run_built_tests_task_test_detail" style="stroke: #A80036; stroke-width: 1.0;"/><polygon fill="#A80036" points="3957.85,134.5358,3948.85,130.5358,3952.85,134.5358,3948.85,138.5358,3957.85,134.5358" style="stroke: #A80036; stroke-width: 1.0;"/><!--MD5=[2f513f763ba332968c9cf390f140609c]
link test_run___Run_built_tests_task_test_detail to test_detail--><path d="M4080.05,120.8658 C4098.07,116.7558 4117.6,112.3158 4134.72,108.4158 " fill="none" id="test_run___Run_built_tests_task_test_detail-&gt;test_detail" style="stroke: #A80036; stroke-width: 1.0; stroke-dasharray: 7.0,7.0;"/><polygon fill="#A80036" points="4139.95,107.2258,4130.2847,105.3334,4135.0759,108.3407,4132.0685,113.132,4139.95,107.2258" style="stroke: #A80036; stroke-width: 1.0;"/><!--MD5=[80f264e203532ba76d9e688103538fbd]
link test_detail to test_detail_step_0--><path d="M4227.09,97.5358 C4243.06,97.5358 4262.04,97.5358 4281.35,97.5358 " fill="none" id="test_detail-&gt;test_detail_step_0" style="stroke: #A80036; stroke-width: 1.0;"/><polygon fill="#A80036" points="4286.81,97.5358,4277.81,93.5358,4281.81,97.5358,4277.81,101.5358,4286.81,97.5358" style="stroke: #A80036; stroke-width: 1.0;"/><!--MD5=[4c4a467bd5b720e46f0762caebadd1a0]
link test_detail_step_0 to test_detail_step_1--><path d="M4500.27,97.5358 C4517.92,97.5358 4536.48,97.5358 4554.82,97.5358 " fill="none" id="test_detail_step_0-&gt;test_detail_step_1" style="stroke: #A80036; stroke-width: 1.0;"/><polygon fill="#A80036" points="4559.99,97.5358,4550.99,93.5358,4554.99,97.5358,4550.99,101.5358,4559.99,97.5358" style="stroke: #A80036; stroke-width: 1.0;"/><!--MD5=[c3b0b9f14d61eb8f9910857dc87b3d64]
link test_run___Run_built_tests_task_test_detail to test_run___Run_built_tests_task_test_coverage--><path d="M4080.16,140.1258 C4215.23,151.4558 4552.57,172.9558 4831,134.5358 C4854.26,131.3258 4879.2,125.0658 4901.04,118.5858 " fill="none" id="test_run___Run_built_tests_task_test_detail-&gt;test_run___Run_built_tests_task_test_coverage" style="stroke: #A80036; stroke-width: 1.0;"/><polygon fill="#A80036" points="4905.94,117.1158,4896.1719,115.8573,4901.1489,118.546,4898.4602,123.523,4905.94,117.1158" style="stroke: #A80036; stroke-width: 1.0;"/><!--MD5=[382d0ccb52d0396b0c15c961cc63e81d]
link test_detail to test_run___Run_built_tests_task_test_coverage--><path d="M4227.48,78.2658 C4245.49,71.1958 4266.87,64.0558 4287,60.5358 C4525.16,18.8658 4591.49,27.4858 4831,60.5358 C4854.26,63.7458 4879.2,70.0058 4901.04,76.4758 " fill="none" id="test_detail-&gt;test_run___Run_built_tests_task_test_coverage" style="stroke: #A80036; stroke-width: 1.0;"/><polygon fill="#A80036" points="4905.94,77.9458,4898.4602,71.5387,4901.1489,76.5157,4896.1719,79.2044,4905.94,77.9458" style="stroke: #A80036; stroke-width: 1.0;"/><!--MD5=[31baffd7867e4cf08cf892b573ec3bea]
link test_detail_step_1 to test_run___Run_built_tests_task_test_coverage--><path d="M4831.06,97.5358 C4849.74,97.5358 4868.39,97.5358 4885.51,97.5358 " fill="none" id="test_detail_step_1-&gt;test_run___Run_built_tests_task_test_coverage" style="stroke: #A80036; stroke-width: 1.0;"/><polygon fill="#A80036" points="4890.78,97.5358,4881.78,93.5358,4885.78,97.5358,4881.78,101.5358,4890.78,97.5358" style="stroke: #A80036; stroke-width: 1.0;"/><!--MD5=[a1626d0a65c7c8833f60eb39014b1a26]
link test_run___Run_built_tests_task_test_coverage to test_coverage--><path d="M5036.22,111.4558 C5054.14,114.9358 5073.17,118.6258 5090.44,121.9758 " fill="none" id="test_run___Run_built_tests_task_test_coverage-&gt;test_coverage" style="stroke: #A80036; stroke-width: 1.0; stroke-dasharray: 7.0,7.0;"/><polygon fill="#A80036" points="5095.74,123.0058,5087.6738,117.3546,5090.8327,122.0473,5086.1401,125.2062,5095.74,123.0058" style="stroke: #A80036; stroke-width: 1.0;"/><!--MD5=[8f353adf782fa754a9a0ff357a714a99]
link test_coverage to test_coverage_step_0--><path d="M5206.29,148.2458 C5244.02,158.4758 5294.87,172.2558 5336.81,183.6158 " fill="none" id="test_coverage-&gt;test_coverage_step_0" style="stroke: #A80036; stroke-width: 1.0;"/><polygon fill="#A80036" points="5341.88,184.9958,5334.2294,178.7936,5337.0519,183.696,5332.1496,186.5185,5341.88,184.9958" style="stroke: #A80036; stroke-width: 1.0;"/><!--MD5=[2ddbc8d81ecaef0c0f5923e8084f1d14]
link test_run___Run_built_tests_task_test_coverage to test_run___Run_built_tests_task_docker_down--><path d="M5036.29,94.2658 C5149.05,90.0958 5374.39,85.7258 5564,106.5358 C5581.89,108.4958 5601.01,111.6158 5618.91,114.9858 " fill="none" id="test_run___Run_built_tests_task_test_coverage-&gt;test_run___Run_built_tests_task_docker_down" style="stroke: #A80036; stroke-width: 1.0;"/><polygon fill="#A80036" points="5623.92,115.9458,5615.8349,110.3217,5619.0096,115.0037,5614.3275,118.1784,5623.92,115.9458" style="stroke: #A80036; stroke-width: 1.0;"/><!--MD5=[4f6efba43a72a42f425c7823e42def7f]
link test_coverage to test_run___Run_built_tests_task_docker_down--><path d="M5206.15,133.3358 C5303.44,132.9758 5507.98,132.2158 5618.62,131.8158 " fill="none" id="test_coverage-&gt;test_run___Run_built_tests_task_docker_down" style="stroke: #A80036; stroke-width: 1.0;"/><polygon fill="#A80036" points="5623.82,131.7958,5614.8086,127.8216,5618.82,131.8101,5614.8315,135.8215,5623.82,131.7958" style="stroke: #A80036; stroke-width: 1.0;"/><!--MD5=[c6ab94164f682433fbe93c9a4acb6350]
link test_coverage_step_0 to test_run___Run_built_tests_task_docker_down--><path d="M5490.36,184.9758 C5530.01,174.5458 5578.66,161.7458 5618.41,151.2858 " fill="none" id="test_coverage_step_0-&gt;test_run___Run_built_tests_task_docker_down" style="stroke: #A80036; stroke-width: 1.0;"/><polygon fill="#A80036" points="5623.7,149.8958,5613.9781,148.3194,5618.8648,151.169,5616.0152,156.0557,5623.7,149.8958" style="stroke: #A80036; stroke-width: 1.0;"/><!--MD5=[1655a0f0c82fbf789f091469d76ff036]
link test_run___Run_built_tests_task_docker_down to docker_down___Bring_down_docker_env--><path d="M5765.26,131.5358 C5782.11,131.5358 5800.72,131.5358 5819.57,131.5358 " fill="none" id="test_run___Run_built_tests_task_docker_down-&gt;docker_down___Bring_down_docker_env" style="stroke: #A80036; stroke-width: 1.0; stroke-dasharray: 7.0,7.0;"/><polygon fill="#A80036" points="5824.9,131.5358,5815.9,127.5358,5819.9,131.5358,5815.9,135.5358,5824.9,131.5358" style="stroke: #A80036; stroke-width: 1.0;"/><!--MD5=[6f958569f6c43b0f1721694aaa36cd34]
link docker_down___Bring_down_docker_env to docker_down___Bring_down_docker_env_step_0--><path d="M6099.31,131.5358 C6117.71,131.5358 6136.2,131.5358 6153.5,131.5358 " fill="none" id="docker_down___Bring_down_docker_env-&gt;docker_down___Bring_down_docker_env_step_0" style="stroke: #A80036; stroke-width: 1.0;"/><polygon fill="#A80036" points="6158.83,131.5358,6149.83,127.5358,6153.83,131.5358,6149.83,135.5358,6158.83,131.5358" style="stroke: #A80036; stroke-width: 1.0;"/><!--MD5=[f2e9e3b0e44c4f2a13e1404c2566ba84]
@startuml
title Atkins project tests, build

skinparam componentStyle rectangle
skinparam defaultTextAlignment center
left to right direction

component "task: test:simple" as default___Run_everything_needed_task_test_simple #Khaki
component "gotestsum ./... - - -count 1" as test_simple___Simple_go_test_with_gotestsum_passth_step_0 #WhiteSmoke
component "go test -cover -coverpkg=./..." as test_build___Build_tests_step_1 #WhiteSmoke
component "./bin/${{ item }} -test.cov... (100 execs)" as test_detail_step_1 #WhiteSmoke
component "task: docker:down" as test_run___Run_built_tests_task_docker_down #Khaki
component "goimports-reviser -set-alia..." as fmt___Format_the_code_step_1 #WhiteSmoke
component "go mod tidy" as fmt___Format_the_code_step_3 #WhiteSmoke
component "test:build - Build tests" as test_build___Build_tests #LightGreen
component "fmt - Format the code" as fmt___Format_the_code #LightGreen
component "test:run - Run built tests" as test_run___Run_built_tests #LightGreen
component "docker:down - Bring down docker env" as docker_down___Bring_down_docker_env #LightGreen
component "docker compose down" as docker_down___Bring_down_docker_env_step_0 #WhiteSmoke
component "task: test:build" as default___Run_everything_needed_task_test_build #Khaki
component "rm bin/*.test -f" as test_build___Build_tests_step_0 #WhiteSmoke
component "task: docker:up" as test_run___Run_built_tests_task_docker_up #Khaki
component "docker compose up -d - -wait..." as docker_up___Bring_up_docker_env_step_0 #WhiteSmoke
component "test:simple - Simple go test with gotestsum (passthru)" as test_simple___Simple_go_test_with_gotestsum_passth #LightGreen
component "docker:up - Bring up docker env" as docker_up___Bring_up_docker_env #LightGreen
component "rm -rf coverage" as test_run___Run_built_tests_step_1 #WhiteSmoke
component "test:detail" as test_detail #LightGreen
component "test:coverage" as test_coverage #LightGreen
component "covertrace - -name ${{ funcN... (100 execs)" as test_coverage_step_0 #WhiteSmoke
component "gofumpt -w ." as fmt___Format_the_code_step_2 #WhiteSmoke
component "task: test:run" as default___Run_everything_needed_task_test_run #Khaki
component "goimports -w ." as fmt___Format_the_code_step_0 #WhiteSmoke
component "default - Run everything needed" as default___Run_everything_needed #LightGreen
component "task: test:coverage" as test_run___Run_built_tests_task_test_coverage #Khaki
component "task: test:detail" as test_run___Run_built_tests_task_test_detail #Khaki
component "mkdir -p coverage/${{ item }}" as test_detail_step_0 #WhiteSmoke
component "Atkins project tests, build" as Atkins_project_tests__build #LightBlue

Atkins_project_tests__build - -> fmt___Format_the_code
fmt___Format_the_code - -> fmt___Format_the_code_step_0
fmt___Format_the_code_step_0 - -> fmt___Format_the_code_step_1
fmt___Format_the_code_step_1 - -> fmt___Format_the_code_step_2
fmt___Format_the_code_step_2 - -> fmt___Format_the_code_step_3
Atkins_project_tests__build - -> default___Run_everything_needed
fmt___Format_the_code - -> default___Run_everything_needed
default___Run_everything_needed - -> default___Run_everything_needed_task_test_simple
default___Run_everything_needed_task_test_simple ..> test_simple___Simple_go_test_with_gotestsum_passth
test_simple___Simple_go_test_with_gotestsum_passth - -> test_simple___Simple_go_test_with_gotestsum_passth_step_0
default___Run_everything_needed_task_test_simple - -> default___Run_everything_needed_task_test_build
test_simple___Simple_go_test_with_gotestsum_passth - -> default___Run_everything_needed_task_test_build
test_simple___Simple_go_test_with_gotestsum_passth_step_0 - -> default___Run_everything_needed_task_test_build
default___Run_everything_needed_task_test_build ..> test_build___Build_tests
test_build___Build_tests - -> test_build___Build_tests_step_0
test_build___Build_tests_step_0 - -> test_build___Build_tests_step_1
default___Run_everything_needed_task_test_build - -> default___Run_everything_needed_task_test_run
test_build___Build_tests - -> default___Run_everything_needed_task_test_run
test_build___Build_tests_step_1 - -> default___Run_everything_needed_task_test_run
default___Run_everything_needed_task_test_run ..> test_run___Run_built_tests
test_run___Run_built_tests - -> test_run___Run_built_tests_task_docker_up
test_run___Run_built_tests_task_docker_up ..> docker_up___Bring_up_docker_env
docker_up___Bring_up_docker_env - -> docker_up___Bring_up_docker_env_step_0
test_run___Run_built_tests_task_docker_up - -> test_run___Run_built_tests_step_1
docker_up___Bring_up_docker_env - -> test_run___Run_built_tests_step_1
docker_up___Bring_up_docker_env_step_0 - -> test_run___Run_built_tests_step_1
test_run___Run_built_tests_step_1 - -> test_run___Run_built_tests_task_test_detail
test_run___Run_built_tests_task_test_detail ..> test_detail
test_detail - -> test_detail_step_0
test_detail_step_0 - -> test_detail_step_1
test_run___Run_built_tests_task_test_detail - -> test_run___Run_built_tests_task_test_coverage
test_detail - -> test_run___Run_built_tests_task_test_coverage
test_detail_step_1 - -> test_run___Run_built_tests_task_test_coverage
test_run___Run_built_tests_task_test_coverage ..> test_coverage
test_coverage - -> test_coverage_step_0
test_run___Run_built_tests_task_test_coverage - -> test_run___Run_built_tests_task_docker_down
test_coverage - -> test_run___Run_built_tests_task_docker_down
test_coverage_step_0 - -> test_run___Run_built_tests_task_docker_down
test_run___Run_built_tests_task_docker_down ..> docker_down___Bring_down_docker_env
docker_down___Bring_down_docker_env - -> docker_down___Bring_down_docker_env_step_0

@enduml

PlantUML version 1.2020.02(Sun Mar 01 11:22:07 CET 2020)
(GPL source distribution)
Java Runtime: OpenJDK Runtime Environment
JVM: OpenJDK 64-Bit Server VM
Java Version: 21.0.9+10-Ubuntu-125.10
Operating System: Linux
Default Encoding: UTF-8
Language: en
Country: US
--></g></svg>